<svg width="1080" height="341" viewBox="0 0 1080 341" fill="none" xmlns="http://www.w3.org/2000/svg">
<g clip-path="url(#clip0_3714_4)">
<path d="M296.07 183.82H311.68C318.62 183.82 323.73 187.5 323.73 196.4C323.73 205.3 318.63 209.04 311.68 209.04H302.6V226.25H296.07V183.82ZM310.96 203.4C314.88 203.4 316.95 201.2 316.95 196.39C316.95 191.58 314.87 189.45 310.96 189.45H302.59V203.4H310.96Z" fill="black"/>
<path d="M329.12 205C329.12 191.11 334.94 182.98 344.25 182.98C353.56 182.98 359.27 191.11 359.27 205C359.27 218.89 353.51 227.08 344.25 227.08C334.99 227.08 329.12 218.89 329.12 205ZM344.25 221.44C350.3 221.44 352.62 214.97 352.62 205C352.62 195.03 350.31 188.62 344.25 188.62C338.19 188.62 335.76 195.15 335.76 205C335.76 214.85 338.01 221.44 344.25 221.44Z" fill="black"/>
<path d="M366.67 183.82H381.98C389.1 183.82 393.25 187.8 393.25 194.51C393.25 199.67 390.7 202.16 387.85 203.35V203.47C391.53 204.3 394.62 207.68 394.62 213.86C394.62 221.99 389.93 226.26 382.75 226.26H366.67V183.83V183.82ZM381.16 201.45C384.9 201.45 386.56 199.25 386.56 195.45C386.56 191.65 384.6 189.45 381.46 189.45H373.15V201.44H381.16V201.45ZM381.69 220.61C386.32 220.61 387.92 217.65 387.92 213.61C387.92 209.16 385.78 206.6 382.22 206.6H373.14V220.61H381.68H381.69Z" fill="black"/>
<path d="M404.06 183.82H410.65V220.61H430.11V226.25H404.06V183.82Z" fill="black"/>
<path d="M438.47 183.82H464.88V189.46H445.06V201.51H462.33V207.15H445.06V220.62H465.41V226.26H438.47V183.83V183.82Z" fill="black"/>
<path d="M473.07 183.82H480.37L493.6 216.46H493.72V183.82H500.13V226.25H492.83L479.42 193.61H479.3L479.48 226.25H473.07V183.82Z" fill="black"/>
<path d="M507.12 205C507.12 191.11 512.94 182.98 522.25 182.98C531.56 182.98 537.27 191.11 537.27 205C537.27 218.89 531.51 227.08 522.25 227.08C512.99 227.08 507.12 218.89 507.12 205ZM522.26 221.44C528.31 221.44 530.63 214.97 530.63 205C530.63 195.03 528.32 188.62 522.26 188.62C516.2 188.62 513.77 195.15 513.77 205C513.77 214.85 516.02 221.44 522.26 221.44Z" fill="black"/>
<path d="M544.33 211.89V183.82H550.86V211.89C550.86 218.48 553.12 221.44 557.8 221.44C562.48 221.44 564.74 218.47 564.74 211.89V183.82H571.27V211.89C571.27 220.91 567.41 227.08 557.8 227.08C548.19 227.08 544.33 220.97 544.33 211.89Z" fill="black"/>
<path d="M626.63 181.98H631.38V233.97H626.63V181.98Z" fill="black"/>
<path d="M687.09 183.82H702.4C709.52 183.82 713.67 187.8 713.67 194.51C713.67 199.67 711.12 202.16 708.27 203.35V203.47C711.95 204.3 715.04 207.68 715.04 213.86C715.04 221.99 710.35 226.26 703.17 226.26H687.09V183.83V183.82ZM701.57 201.45C705.31 201.45 706.97 199.25 706.97 195.45C706.97 191.65 705.01 189.45 701.87 189.45H693.56V201.44H701.57V201.45ZM702.11 220.61C706.74 220.61 708.34 217.65 708.34 213.61C708.34 209.16 706.2 206.6 702.64 206.6H693.56V220.61H702.1H702.11Z" fill="black"/>
<path d="M721.92 205.06C721.92 192.36 726.96 182.98 736.64 182.98C745.01 182.98 749.28 189.57 750.05 198.23H743.34C742.63 192.77 741.08 188.62 736.4 188.62C730.11 188.62 728.63 196.69 728.63 205C728.63 213.31 730.11 221.44 736.46 221.44C741.68 221.44 742.93 216.04 743.34 210.82H750.05C749.4 220.26 744.95 227.08 736.46 227.08C726.91 227.08 721.92 217.82 721.92 205.06Z" fill="black"/>
<path d="M757.88 183.82H765.18L778.41 216.46H778.53V183.82H784.94V226.25H777.64L764.23 193.61H764.11L764.29 226.25H757.88V183.82Z" fill="black"/>
<path d="M222.96 276.21H203.62V270.28L222.96 244.58H229.37V270.69H235.19V276.21H229.37V285.59H222.96V276.21ZM222.96 270.69V252.82L209.49 270.69H222.96Z" fill="black"/>
<path d="M241.54 257.1V251.87C251.39 251.81 253.94 250.09 254.48 244.57H259.58V280.06H269.37V285.58H241.54V280.06H253.11V255.14C250.91 256.74 247.35 257.1 241.54 257.1Z" fill="black"/>
<path d="M287.1 278.29H294.46V285.59H287.1V278.29Z" fill="black"/>
<path d="M324.31 267.6C330.42 263.63 333.81 261.61 333.81 256.27C333.81 252.94 332.39 249.26 327.46 249.26C321.82 249.26 319.75 253.47 319.75 259.05H313.22C313.22 250.33 317.79 243.74 327.64 243.74C334.88 243.74 340.46 248.19 340.46 256.03C340.46 263.87 334.76 267.78 328.95 271.75C324.2 274.9 321.89 276.68 320.82 279.94V280.06H340.17V285.58H312.34C312.34 278.16 316.37 272.88 324.33 267.6H324.31Z" fill="black"/>
<path d="M365.37 276.21H346.03V270.28L365.37 244.58H371.78V270.69H377.6V276.21H371.78V285.59H365.37V276.21ZM365.37 270.69V252.82L351.9 270.69H365.37Z" fill="black"/>
<path d="M397.65 243.75C408.63 243.75 412.43 253.96 412.43 265.35C412.43 276.74 408.63 286.42 397.65 286.42C386.67 286.42 382.76 276.8 382.76 265.35C382.76 253.9 386.62 243.75 397.65 243.75ZM397.65 280.9C404.59 280.9 405.78 273.48 405.78 265.41C405.78 257.34 404.59 249.27 397.65 249.27C390.71 249.27 389.4 257.28 389.4 265.35C389.4 273.42 390.71 280.9 397.65 280.9ZM394.33 261.31H400.74V268.38H394.33V261.31Z" fill="black"/>
<path d="M447.44 264.94C447.44 278.41 441.92 286.42 432.54 286.42C425.48 286.42 420.67 281.37 419.9 275.2H426.43C426.79 278.46 428.51 281.08 432.6 281.08C439.25 281.08 441.09 274.01 441.09 266.84V266.19L440.97 266.13C439.01 269.69 435.57 271.65 431.42 271.65C424 271.65 418.84 266.01 418.84 258C418.84 249.99 424.12 243.76 432.55 243.76C443.59 243.76 447.45 252.48 447.45 264.95L447.44 264.94ZM432.48 266.24C437.41 266.24 440.55 262.74 440.55 257.51C440.55 252.28 437.76 249.09 432.77 249.09C427.78 249.09 425.35 252.41 425.35 257.63C425.35 262.85 428.08 266.24 432.47 266.24H432.48Z" fill="black"/>
<path d="M459.66 251.22C459.66 247.07 462.62 242.32 468.8 242.32C474.98 242.32 477.94 247.07 477.94 251.22C477.94 255.37 474.91 260.18 468.8 260.18C462.69 260.18 459.66 255.43 459.66 251.22ZM468.79 256.39C471.76 256.39 473.83 254.31 473.83 251.22C473.83 248.13 471.75 246.12 468.79 246.12C465.83 246.12 463.75 248.2 463.75 251.22C463.75 254.24 465.83 256.39 468.79 256.39Z" fill="black"/>
<path d="M490.87 243.16H498.17L511.4 275.8H511.52V243.16H517.93V285.59H510.63L497.22 252.95H497.1L497.28 285.59H490.87V243.16Z" fill="black"/>
<path d="M575.66 243.75C586.64 243.75 590.44 253.96 590.44 265.35C590.44 276.74 586.64 286.42 575.66 286.42C564.68 286.42 560.77 276.8 560.77 265.35C560.77 253.9 564.63 243.75 575.66 243.75ZM575.66 280.9C582.6 280.9 583.79 273.48 583.79 265.41C583.79 257.34 582.6 249.27 575.66 249.27C568.72 249.27 567.41 257.28 567.41 265.35C567.41 273.42 568.72 280.9 575.66 280.9ZM572.33 261.31H578.74V268.38H572.33V261.31Z" fill="black"/>
<path d="M609.13 267.6C615.24 263.63 618.63 261.61 618.63 256.27C618.63 252.94 617.21 249.26 612.28 249.26C606.64 249.26 604.57 253.47 604.57 259.05H598.04C598.04 250.33 602.61 243.74 612.46 243.74C619.7 243.74 625.28 248.19 625.28 256.03C625.28 263.87 619.58 267.78 613.77 271.75C609.02 274.9 606.71 276.68 605.64 279.94V280.06H624.99V285.58H597.16C597.16 278.16 601.19 272.88 609.15 267.6H609.13Z" fill="black"/>
<path d="M643.12 278.29H650.48V285.59H643.12V278.29Z" fill="black"/>
<path d="M668.76 257.1V251.87C678.61 251.81 681.16 250.09 681.7 244.57H686.8V280.06H696.59V285.58H668.76V280.06H680.33V255.14C678.13 256.74 674.57 257.1 668.76 257.1Z" fill="black"/>
<path d="M704.36 257.1V251.87C714.21 251.81 716.76 250.09 717.3 244.57H722.4V280.06H732.19V285.58H704.36V280.06H715.93V255.14C713.73 256.74 710.17 257.1 704.36 257.1Z" fill="black"/>
<path d="M739.55 273.6H746.08C746.44 277.34 748.57 280.9 753.74 280.9C758.37 280.9 761.4 277.64 761.4 271.58C761.4 265.52 758.61 263.21 753.98 263.21C751.01 263.21 748.28 264.4 746.56 266.89H740.09L744.24 244.57H766.2V250.09H749.05L747.03 261.43V261.55C748.99 259.35 751.83 257.99 755.75 257.99C763.05 257.99 768.04 263.75 768.04 271.58C768.04 280.66 761.99 286.42 754.09 286.42C744.77 286.42 739.85 280.48 739.55 273.6Z" fill="black"/>
<path d="M795.98 250.22V250.1H775.21V244.58H803.1V249.51C791.76 257.28 787.08 272.54 787.08 285.59H780.37C780.37 272.06 786.78 256.69 795.98 250.22Z" fill="black"/>
<path d="M815.67 251.22C815.67 247.07 818.63 242.32 824.81 242.32C830.99 242.32 833.95 247.07 833.95 251.22C833.95 255.37 830.92 260.18 824.81 260.18C818.7 260.18 815.67 255.43 815.67 251.22ZM824.81 256.39C827.78 256.39 829.85 254.31 829.85 251.22C829.85 248.13 827.77 246.12 824.81 246.12C821.85 246.12 819.77 248.2 819.77 251.22C819.77 254.24 821.85 256.39 824.81 256.39Z" fill="black"/>
<path d="M844.33 243.16H850.62L853.47 276.04H853.59L857.75 253.55H863.09L867.25 276.04H867.31L870.22 243.16H876.51L870.93 285.59H864.88L860.43 259.6H860.37L855.98 285.59H849.93L844.35 243.16H844.33Z" fill="black"/>
<path d="M225.28 302.49H252.16V308.13H231.86V320.89H248.3V326.53H231.86V344.93H225.27V302.5L225.28 302.49Z" fill="black"/>
<path d="M257.91 323.68C257.91 309.79 263.73 301.66 273.04 301.66C282.35 301.66 288.06 309.79 288.06 323.68C288.06 337.57 282.3 345.75 273.04 345.75C263.78 345.75 257.91 337.56 257.91 323.68ZM273.04 340.11C279.09 340.11 281.41 333.64 281.41 323.67C281.41 313.7 279.1 307.29 273.04 307.29C266.98 307.29 264.55 313.82 264.55 323.67C264.55 333.52 266.8 340.11 273.04 340.11Z" fill="black"/>
<path d="M293.51 323.68C293.51 309.79 299.33 301.66 308.64 301.66C317.95 301.66 323.66 309.79 323.66 323.68C323.66 337.57 317.9 345.75 308.64 345.75C299.38 345.75 293.51 337.56 293.51 323.68ZM308.64 340.11C314.69 340.11 317.01 333.64 317.01 323.67C317.01 313.7 314.7 307.29 308.64 307.29C302.58 307.29 300.15 313.82 300.15 323.67C300.15 333.52 302.4 340.11 308.64 340.11Z" fill="black"/>
<path d="M330.72 302.49H344.31C353.45 302.49 359.21 310.2 359.21 323.73C359.21 337.26 353.75 344.92 344.55 344.92H330.72V302.49ZM343.71 339.29C350.59 339.29 352.55 331.99 352.55 323.74C352.55 315.49 350.53 308.13 343.71 308.13H337.12V339.29H343.71Z" fill="black"/>
<path d="M403.28 302.49H430.16V308.13H409.86V320.89H426.3V326.53H409.86V344.93H403.27V302.5L403.28 302.49Z" fill="black"/>
<path d="M435.92 323.68C435.92 309.79 441.74 301.66 451.05 301.66C460.36 301.66 466.07 309.79 466.07 323.68C466.07 337.57 460.31 345.75 451.05 345.75C441.79 345.75 435.92 337.56 435.92 323.68ZM451.05 340.11C457.1 340.11 459.42 333.64 459.42 323.67C459.42 313.7 457.11 307.29 451.05 307.29C444.99 307.29 442.56 313.82 442.56 323.67C442.56 333.52 444.81 340.11 451.05 340.11Z" fill="black"/>
<path d="M473.83 302.49H489.02C496.73 302.49 501.07 306.88 501.07 314.71C501.07 320.11 498.4 324.03 494.42 325.1V325.22C502.67 327.06 499.65 343.79 501.54 344.51V344.92H494.71C493.11 343.14 496.43 328.3 488.18 328.3H480.34V344.92H473.81V302.49H473.83ZM487.72 322.67C492.11 322.67 494.6 320.12 494.6 315.13C494.6 310.56 492.52 308.13 487.77 308.13H480.35V322.67H487.71H487.72Z" fill="black"/>
<path d="M546.46 302.49H553.05V339.28H572.51V344.92H546.46V302.49Z" fill="black"/>
<path d="M578.32 323.68C578.32 309.79 584.14 301.66 593.45 301.66C602.76 301.66 608.47 309.79 608.47 323.68C608.47 337.57 602.71 345.75 593.45 345.75C584.19 345.75 578.32 337.56 578.32 323.68ZM593.46 340.11C599.51 340.11 601.83 333.64 601.83 323.67C601.83 313.7 599.52 307.29 593.46 307.29C587.4 307.29 584.97 313.82 584.97 323.67C584.97 333.52 587.22 340.11 593.46 340.11Z" fill="black"/>
<path d="M615.47 302.49H622.77L636 335.13H636.12V302.49H642.53V344.92H635.23L621.82 312.28H621.7L621.88 344.92H615.47V302.49Z" fill="black"/>
<path d="M649.95 323.92C649.95 311.04 655.23 301.67 664.97 301.67C672.63 301.67 677.43 307.43 678.32 315.61H671.67C671.08 310.21 668.58 307.31 664.91 307.31C658.62 307.31 656.6 315.74 656.6 323.69C656.6 331.64 658.44 340.13 664.67 340.13C669.36 340.13 672.09 335.56 672.15 328.2H664.97V322.74H678.8V344.94H674.29L673.28 339.06H673.16C671.32 343.63 668.23 345.77 663.9 345.77C654.82 345.77 649.95 336.45 649.95 323.93V323.92Z" fill="black"/>
<path d="M687.68 302.49H714.09V308.13H694.27V320.18H711.54V325.82H694.27V339.29H714.62V344.93H687.68V302.5V302.49Z" fill="black"/>
<path d="M719.73 302.49H726.85L735.99 338.04H736.05L745.07 302.49H751.9L739.5 344.92H732.44L719.74 302.49H719.73Z" fill="black"/>
<path d="M758.41 339.29H768.08V308.13H758.41V302.49H784.4V308.13H774.67V339.29H784.4V344.93H758.41V339.29Z" fill="black"/>
<path d="M803.75 308.13H791.64V302.49H822.38V308.13H810.27V344.92H803.74V308.13H803.75Z" fill="black"/>
<path d="M839.35 327.89L825.82 302.49H832.88L842.55 322.79H842.67L852.46 302.49H859.4L845.87 327.89V344.92H839.34V327.89H839.35Z" fill="black"/>
<path d="M816.25 -0.000206108C860.16 -0.540206 883.88 37.6898 873.71 78.4298C866.13 108.77 839.27 124.62 808.67 120.91C737.9 112.34 740.62 0.929794 816.25 -0.000206108ZM812.02 14.9998C760.02 19.5998 762.39 101.28 811.42 106.48C834.56 108.94 853.34 96.1198 858.25 73.2998C865.24 40.8198 847.58 11.8598 812.02 14.9998Z" fill="black"/>
<path d="M681.83 -0.000233432C710.07 -0.310233 734.03 16.7198 739.76 44.7698C748.69 88.4298 720.54 126.42 674.25 120.92C603.36 112.49 605.87 0.849767 681.83 -0.000233432ZM677.61 14.9998C625.09 19.6398 628.03 101.76 677.01 106.48C699.67 108.66 718.22 96.6898 723.47 74.3198C731.12 41.7098 713.53 11.8198 677.62 14.9898L677.61 14.9998Z" fill="black"/>
<path d="M174.46 2.69971C199.11 4.86971 213.39 27.4397 203.48 50.3697C199.64 59.2597 196.19 60.0197 188.88 64.7597C188.43 65.0497 188.04 64.7097 188.28 65.7997C207.56 69.9197 203.29 95.0697 205.68 109.91C206.2 113.16 207.56 115.89 207.95 119.1H192.26C188.58 111.34 189.27 102.02 188.27 93.6297C187.37 86.0097 186.61 75.3397 178.08 72.4797C174.44 71.2597 165.17 70.9297 159.04 70.9297C138.75 70.9297 130.67 70.4497 130.67 57.3897V119.1H115.21V2.69971H174.46ZM130.67 57.3997C142.15 56.8997 154.17 58.0597 165.58 57.4197C179.63 56.6297 191.48 51.4497 190.09 35.2597C189.17 24.5297 179.91 17.1997 169.31 17.1997H130.67V57.3997Z" fill="black"/>
<path d="M580.95 2.69971C605.6 4.86971 619.88 27.4397 609.97 50.3697C606.13 59.2597 602.68 60.0197 595.37 64.7597C594.92 65.0497 594.53 64.7097 594.77 65.7997C614.05 69.9197 609.78 95.0697 612.17 109.91C612.69 113.16 614.05 115.89 614.44 119.1H598.75C595.07 111.34 595.76 102.02 594.76 93.6297C593.86 86.0097 593.1 75.3397 584.57 72.4797C580.93 71.2597 571.66 70.9297 565.53 70.9297C545.24 70.9297 537.16 70.4497 537.16 57.3897V119.1H521.7V2.69971H580.95ZM537.16 57.3997C548.64 56.8997 560.66 58.0597 572.07 57.4197C586.12 56.6297 597.97 51.4497 596.58 35.2597C595.66 24.5297 586.4 17.1997 575.8 17.1997H537.16V57.3997Z" fill="black"/>
<path d="M1078.61 37.7597H1061.75C1060.53 22.8097 1049.63 15.1997 1035.31 14.3597C1019.78 13.4497 1002.91 19.0097 1004.59 37.5397C1005.37 46.0997 1013.62 49.1697 1020.91 50.7097C1041.46 55.0297 1075.12 51.0097 1079.49 78.7197C1083.28 102.73 1065.5 118.13 1043.19 120.91C1015.19 124.4 984.47 112.59 984.94 80.2997H1001.57L1002.2 81.0697C1002.48 96.0797 1013.35 105.45 1027.8 106.94C1042.48 108.45 1063.04 104.4 1063.65 86.1597C1064.04 74.3397 1055.53 70.3697 1045.46 68.2897C1025.85 64.2297 993.67 67.6797 988.83 41.5997C979.64 -7.95032 1063.88 -13.2903 1076.61 25.9797C1077.9 29.9697 1078.04 33.6597 1078.62 37.7697L1078.61 37.7597Z" fill="black"/>
<path d="M441.19 2.69971V17.1897H371.87V51.7897H436.03V66.2797H371.87V104.15H442.12V119.11H356.41V2.69971H441.19Z" fill="black"/>
<path d="M246.35 2.69971L246.33 70.7397C244.92 117.11 314.42 118.84 315.68 73.0797L315.66 2.69971H331.12V74.4597C330.11 137.35 232.41 136.33 230.87 74.4797L230.89 2.69971H246.35Z" fill="black"/>
<path d="M98.35 2.69971V17.6597H57.14V119.11H41.68V17.6597H0V2.69971H98.35Z" fill="black"/>
<path d="M976.51 2.69971V17.6597H934.83V119.11H919.37V17.6597H878.16V2.69971H976.51Z" fill="black"/>
</g>
<defs>
<clipPath id="clip0_3714_4">
<rect width="1080" height="340.75" fill="white"/>
</clipPath>
</defs>
</svg>
