<svg width="1080" height="122" viewBox="0 0 1080 122" fill="none" xmlns="http://www.w3.org/2000/svg">
<g clip-path="url(#clip0_3714_151)">
<path d="M816.25 -0.000206108C860.16 -0.540206 883.88 37.6898 873.71 78.4298C866.13 108.77 839.27 124.62 808.67 120.91C737.9 112.34 740.62 0.929794 816.25 -0.000206108ZM812.02 14.9998C760.02 19.5998 762.39 101.28 811.42 106.48C834.56 108.94 853.34 96.1198 858.25 73.2998C865.24 40.8198 847.58 11.8598 812.02 14.9998Z" fill="black"/>
<path d="M681.83 -0.000233432C710.07 -0.310233 734.03 16.7198 739.76 44.7698C748.69 88.4298 720.54 126.42 674.25 120.92C603.36 112.49 605.87 0.849767 681.83 -0.000233432ZM677.61 14.9998C625.09 19.6398 628.03 101.76 677.01 106.48C699.67 108.66 718.22 96.6898 723.47 74.3198C731.12 41.7098 713.53 11.8198 677.62 14.9898L677.61 14.9998Z" fill="black"/>
<path d="M174.46 2.7002C199.11 4.8702 213.39 27.4402 203.48 50.3702C199.64 59.2602 196.19 60.0202 188.88 64.7602C188.43 65.0502 188.04 64.7102 188.28 65.8002C207.56 69.9202 203.29 95.0702 205.68 109.91C206.2 113.16 207.56 115.89 207.95 119.1H192.26C188.58 111.34 189.27 102.02 188.27 93.6302C187.37 86.0102 186.61 75.3402 178.08 72.4802C174.44 71.2602 165.17 70.9302 159.04 70.9302C138.75 70.9302 130.67 70.4502 130.67 57.3902V119.1H115.21V2.7002H174.46ZM130.67 57.4002C142.15 56.9002 154.17 58.0602 165.58 57.4202C179.63 56.6302 191.48 51.4502 190.09 35.2602C189.17 24.5302 179.91 17.2002 169.31 17.2002H130.67V57.4002Z" fill="black"/>
<path d="M580.95 2.7002C605.6 4.8702 619.88 27.4402 609.97 50.3702C606.13 59.2602 602.68 60.0202 595.37 64.7602C594.92 65.0502 594.53 64.7102 594.77 65.8002C614.05 69.9202 609.78 95.0702 612.17 109.91C612.69 113.16 614.05 115.89 614.44 119.1H598.75C595.07 111.34 595.76 102.02 594.76 93.6302C593.86 86.0102 593.1 75.3402 584.57 72.4802C580.93 71.2602 571.66 70.9302 565.53 70.9302C545.24 70.9302 537.16 70.4502 537.16 57.3902V119.1H521.7V2.7002H580.95ZM537.16 57.4002C548.64 56.9002 560.66 58.0602 572.07 57.4202C586.12 56.6302 597.97 51.4502 596.58 35.2602C595.66 24.5302 586.4 17.2002 575.8 17.2002H537.16V57.4002Z" fill="black"/>
<path d="M1078.61 37.7602H1061.75C1060.53 22.8102 1049.63 15.2002 1035.31 14.3602C1019.78 13.4502 1002.91 19.0102 1004.59 37.5402C1005.37 46.1002 1013.62 49.1702 1020.91 50.7102C1041.46 55.0302 1075.12 51.0102 1079.49 78.7202C1083.28 102.73 1065.5 118.13 1043.19 120.91C1015.19 124.4 984.47 112.59 984.94 80.3002H1001.57L1002.2 81.0702C1002.48 96.0802 1013.35 105.45 1027.8 106.94C1042.48 108.45 1063.04 104.4 1063.65 86.1602C1064.04 74.3402 1055.53 70.3702 1045.46 68.2902C1025.85 64.2302 993.67 67.6802 988.83 41.6002C979.64 -7.94983 1063.88 -13.2898 1076.61 25.9802C1077.9 29.9702 1078.04 33.6602 1078.62 37.7702L1078.61 37.7602Z" fill="black"/>
<path d="M441.19 2.7002V17.1902H371.87V51.7902H436.03V66.2802H371.87V104.15H442.12V119.11H356.41V2.7002H441.19Z" fill="black"/>
<path d="M246.35 2.7002L246.33 70.7402C244.92 117.11 314.42 118.84 315.68 73.0802L315.66 2.7002H331.12V74.4602C330.11 137.35 232.41 136.33 230.87 74.4802L230.89 2.7002H246.35Z" fill="black"/>
<path d="M98.35 2.7002V17.6602H57.14V119.11H41.68V17.6602H0V2.7002H98.35Z" fill="black"/>
<path d="M976.51 2.7002V17.6602H934.83V119.11H919.37V17.6602H878.16V2.7002H976.51Z" fill="black"/>
</g>
<defs>
<clipPath id="clip0_3714_151">
<rect width="1080" height="121.51" fill="white"/>
</clipPath>
</defs>
</svg>
