<svg width="673" height="164" viewBox="0 0 673 164" fill="none" xmlns="http://www.w3.org/2000/svg">
<path d="M92.45 1.83984H108.06C115 1.83984 120.11 5.51983 120.11 14.4198C120.11 23.3198 115.01 27.0598 108.06 27.0598H98.98V44.2698H92.45V1.83984ZM107.34 21.4198C111.26 21.4198 113.33 19.2198 113.33 14.4098C113.33 9.59984 111.25 7.46983 107.34 7.46983H98.97V21.4198H107.34Z" fill="black"/>
<path d="M125.5 23.02C125.5 9.13 131.32 1 140.63 1C149.94 1 155.65 9.13 155.65 23.02C155.65 36.91 149.89 45.1 140.63 45.1C131.37 45.1 125.5 36.91 125.5 23.02ZM140.63 39.46C146.68 39.46 149 32.99 149 23.02C149 13.05 146.69 6.64 140.63 6.64C134.57 6.64 132.14 13.17 132.14 23.02C132.14 32.87 134.39 39.46 140.63 39.46Z" fill="black"/>
<path d="M163.05 1.83984H178.36C185.48 1.83984 189.63 5.81983 189.63 12.5298C189.63 17.6898 187.08 20.1798 184.23 21.3698V21.4898C187.91 22.3198 191 25.6998 191 31.8798C191 40.0098 186.31 44.2798 179.13 44.2798H163.05V1.84984V1.83984ZM177.54 19.4698C181.28 19.4698 182.94 17.2698 182.94 13.4698C182.94 9.66983 180.98 7.46983 177.84 7.46983H169.53V19.4598H177.54V19.4698ZM178.07 38.6298C182.7 38.6298 184.3 35.6698 184.3 31.6298C184.3 27.1798 182.16 24.6198 178.6 24.6198H169.52V38.6298H178.06H178.07Z" fill="black"/>
<path d="M200.44 1.83984H207.03V38.6298H226.49V44.2698H200.44V1.83984Z" fill="black"/>
<path d="M234.85 1.83984H261.26V7.47984H241.44V19.5298H258.71V25.1698H241.44V38.6398H261.79V44.2798H234.85V1.84984V1.83984Z" fill="black"/>
<path d="M269.45 1.83984H276.75L289.98 34.4798H290.1V1.83984H296.51V44.2698H289.21L275.8 11.6298H275.68L275.86 44.2698H269.45V1.83984Z" fill="black"/>
<path d="M303.5 23.02C303.5 9.13 309.32 1 318.63 1C327.94 1 333.65 9.13 333.65 23.02C333.65 36.91 327.89 45.1 318.63 45.1C309.37 45.1 303.5 36.91 303.5 23.02ZM318.64 39.46C324.69 39.46 327.01 32.99 327.01 23.02C327.01 13.05 324.7 6.64 318.64 6.64C312.58 6.64 310.15 13.17 310.15 23.02C310.15 32.87 312.4 39.46 318.64 39.46Z" fill="black"/>
<path d="M340.71 29.9098V1.83984H347.24V29.9098C347.24 36.4998 349.5 39.4598 354.18 39.4598C358.86 39.4598 361.12 36.4898 361.12 29.9098V1.83984H367.65V29.9098C367.65 38.9298 363.79 45.0998 354.18 45.0998C344.57 45.0998 340.71 38.9898 340.71 29.9098Z" fill="black"/>
<path d="M423.01 0H427.76V51.99H423.01V0Z" fill="black"/>
<path d="M483.47 1.83984H498.78C505.9 1.83984 510.05 5.81983 510.05 12.5298C510.05 17.6898 507.5 20.1798 504.65 21.3698V21.4898C508.33 22.3198 511.42 25.6998 511.42 31.8798C511.42 40.0098 506.73 44.2798 499.55 44.2798H483.47V1.84984V1.83984ZM497.95 19.4698C501.69 19.4698 503.35 17.2698 503.35 13.4698C503.35 9.66983 501.39 7.46983 498.25 7.46983H489.94V19.4598H497.95V19.4698ZM498.49 38.6298C503.12 38.6298 504.72 35.6698 504.72 31.6298C504.72 27.1798 502.58 24.6198 499.02 24.6198H489.94V38.6298H498.48H498.49Z" fill="black"/>
<path d="M518.3 23.08C518.3 10.38 523.34 1 533.02 1C541.39 1 545.66 7.59 546.43 16.25H539.72C539.01 10.79 537.46 6.64 532.78 6.64C526.49 6.64 525.01 14.71 525.01 23.02C525.01 31.33 526.49 39.46 532.84 39.46C538.06 39.46 539.31 34.06 539.72 28.84H546.43C545.78 38.28 541.33 45.1 532.84 45.1C523.29 45.1 518.3 35.84 518.3 23.08Z" fill="black"/>
<path d="M554.26 1.83984H561.56L574.79 34.4798H574.91V1.83984H581.32V44.2698H574.02L560.61 11.6298H560.49L560.67 44.2698H554.26V1.83984Z" fill="black"/>
<path d="M19.34 94.2301H0V88.3001L19.34 62.6001H25.75V88.7101H31.57V94.2301H25.75V103.61H19.34V94.2301ZM19.34 88.7101V70.8401L5.87001 88.7101H19.34Z" fill="black"/>
<path d="M37.92 75.1198V69.8898C47.77 69.8298 50.32 68.1098 50.86 62.5898H55.96V98.0798H65.75V103.6H37.92V98.0798H49.49V73.1598C47.29 74.7598 43.73 75.1198 37.92 75.1198Z" fill="black"/>
<path d="M83.48 96.3101H90.84V103.61H83.48V96.3101Z" fill="black"/>
<path d="M120.69 85.6198C126.8 81.6498 130.19 79.6298 130.19 74.2898C130.19 70.9598 128.77 67.2798 123.84 67.2798C118.2 67.2798 116.13 71.4898 116.13 77.0698H109.6C109.6 68.3498 114.17 61.7598 124.02 61.7598C131.26 61.7598 136.84 66.2098 136.84 74.0498C136.84 81.8898 131.14 85.7998 125.33 89.7698C120.58 92.9198 118.27 94.6998 117.2 97.9598V98.0798H136.55V103.6H108.72C108.72 96.1797 112.75 90.8998 120.71 85.6198H120.69Z" fill="black"/>
<path d="M161.75 94.2301H142.41V88.3001L161.75 62.6001H168.16V88.7101H173.98V94.2301H168.16V103.61H161.75V94.2301ZM161.75 88.7101V70.8401L148.28 88.7101H161.75Z" fill="black"/>
<path d="M194.03 61.77C205.01 61.77 208.81 71.98 208.81 83.37C208.81 94.76 205.01 104.44 194.03 104.44C183.05 104.44 179.14 94.82 179.14 83.37C179.14 71.92 183 61.77 194.03 61.77ZM194.03 98.92C200.97 98.92 202.16 91.5 202.16 83.43C202.16 75.36 200.97 67.29 194.03 67.29C187.09 67.29 185.78 75.3 185.78 83.37C185.78 91.44 187.09 98.92 194.03 98.92ZM190.71 79.33H197.12V86.4H190.71V79.33Z" fill="black"/>
<path d="M243.82 82.9598C243.82 96.4298 238.3 104.44 228.92 104.44C221.86 104.44 217.05 99.3898 216.28 93.2198H222.81C223.17 96.4798 224.89 99.0998 228.98 99.0998C235.63 99.0998 237.47 92.0298 237.47 84.8598V84.2098L237.35 84.1498C235.39 87.7098 231.95 89.6698 227.8 89.6698C220.38 89.6698 215.22 84.0298 215.22 76.0198C215.22 68.0098 220.5 61.7798 228.93 61.7798C239.97 61.7798 243.83 70.4998 243.83 82.9698L243.82 82.9598ZM228.86 84.2598C233.79 84.2598 236.93 80.7598 236.93 75.5298C236.93 70.2998 234.14 67.1098 229.15 67.1098C224.16 67.1098 221.73 70.4298 221.73 75.6498C221.73 80.8698 224.46 84.2598 228.85 84.2598H228.86Z" fill="black"/>
<path d="M256.04 69.2398C256.04 65.0898 259 60.3398 265.18 60.3398C271.36 60.3398 274.32 65.0898 274.32 69.2398C274.32 73.3898 271.29 78.1998 265.18 78.1998C259.07 78.1998 256.04 73.4498 256.04 69.2398ZM265.17 74.4098C268.14 74.4098 270.21 72.3298 270.21 69.2398C270.21 66.1498 268.13 64.1398 265.17 64.1398C262.21 64.1398 260.13 66.2198 260.13 69.2398C260.13 72.2598 262.21 74.4098 265.17 74.4098Z" fill="black"/>
<path d="M287.25 61.1802H294.55L307.78 93.8202H307.9V61.1802H314.31V103.61H307.01L293.6 70.9702H293.48L293.66 103.61H287.25V61.1802Z" fill="black"/>
<path d="M372.04 61.77C383.02 61.77 386.82 71.98 386.82 83.37C386.82 94.76 383.02 104.44 372.04 104.44C361.06 104.44 357.15 94.82 357.15 83.37C357.15 71.92 361.01 61.77 372.04 61.77ZM372.04 98.92C378.98 98.92 380.17 91.5 380.17 83.43C380.17 75.36 378.98 67.29 372.04 67.29C365.1 67.29 363.79 75.3 363.79 83.37C363.79 91.44 365.1 98.92 372.04 98.92ZM368.71 79.33H375.12V86.4H368.71V79.33Z" fill="black"/>
<path d="M405.51 85.6198C411.62 81.6498 415.01 79.6298 415.01 74.2898C415.01 70.9598 413.59 67.2798 408.66 67.2798C403.02 67.2798 400.95 71.4898 400.95 77.0698H394.42C394.42 68.3498 398.99 61.7598 408.84 61.7598C416.08 61.7598 421.66 66.2098 421.66 74.0498C421.66 81.8898 415.96 85.7998 410.15 89.7698C405.4 92.9198 403.09 94.6998 402.02 97.9598V98.0798H421.37V103.6H393.54C393.54 96.1797 397.57 90.8998 405.53 85.6198H405.51Z" fill="black"/>
<path d="M439.5 96.3101H446.86V103.61H439.5V96.3101Z" fill="black"/>
<path d="M465.14 75.1198V69.8898C474.99 69.8298 477.54 68.1098 478.08 62.5898H483.18V98.0798H492.97V103.6H465.14V98.0798H476.71V73.1598C474.51 74.7598 470.95 75.1198 465.14 75.1198Z" fill="black"/>
<path d="M500.74 75.1198V69.8898C510.59 69.8298 513.14 68.1098 513.68 62.5898H518.78V98.0798H528.57V103.6H500.74V98.0798H512.31V73.1598C510.11 74.7598 506.55 75.1198 500.74 75.1198Z" fill="black"/>
<path d="M535.93 91.6198H542.46C542.82 95.3598 544.95 98.9198 550.12 98.9198C554.75 98.9198 557.78 95.6598 557.78 89.5998C557.78 83.5398 554.99 81.2298 550.36 81.2298C547.39 81.2298 544.66 82.4199 542.94 84.9099H536.47L540.62 62.5898H562.58V68.1098H545.43L543.41 79.4498V79.5698C545.37 77.3698 548.21 76.0098 552.13 76.0098C559.43 76.0098 564.42 81.7698 564.42 89.5998C564.42 98.6798 558.37 104.44 550.47 104.44C541.15 104.44 536.23 98.4998 535.93 91.6198Z" fill="black"/>
<path d="M592.36 68.2401V68.1201H571.59V62.6001H599.48V67.5301C588.14 75.3001 583.46 90.5601 583.46 103.61H576.75C576.75 90.0801 583.16 74.7101 592.36 68.2401Z" fill="black"/>
<path d="M612.05 69.2398C612.05 65.0898 615.01 60.3398 621.19 60.3398C627.37 60.3398 630.33 65.0898 630.33 69.2398C630.33 73.3898 627.3 78.1998 621.19 78.1998C615.08 78.1998 612.05 73.4498 612.05 69.2398ZM621.19 74.4098C624.16 74.4098 626.23 72.3298 626.23 69.2398C626.23 66.1498 624.15 64.1398 621.19 64.1398C618.23 64.1398 616.15 66.2198 616.15 69.2398C616.15 72.2598 618.23 74.4098 621.19 74.4098Z" fill="black"/>
<path d="M640.71 61.1802H647L649.85 94.0602H649.97L654.13 71.5702H659.47L663.63 94.0602H663.69L666.6 61.1802H672.89L667.31 103.61H661.26L656.81 77.6202H656.75L652.36 103.61H646.31L640.73 61.1802H640.71Z" fill="black"/>
<path d="M21.66 120.51H48.54V126.15H28.24V138.91H44.68V144.55H28.24V162.95H21.65V120.52L21.66 120.51Z" fill="black"/>
<path d="M54.29 141.7C54.29 127.81 60.11 119.68 69.42 119.68C78.73 119.68 84.44 127.81 84.44 141.7C84.44 155.59 78.68 163.77 69.42 163.77C60.16 163.77 54.29 155.58 54.29 141.7ZM69.42 158.13C75.47 158.13 77.79 151.66 77.79 141.69C77.79 131.72 75.48 125.31 69.42 125.31C63.36 125.31 60.93 131.84 60.93 141.69C60.93 151.54 63.18 158.13 69.42 158.13Z" fill="black"/>
<path d="M89.89 141.7C89.89 127.81 95.71 119.68 105.02 119.68C114.33 119.68 120.04 127.81 120.04 141.7C120.04 155.59 114.28 163.77 105.02 163.77C95.76 163.77 89.89 155.58 89.89 141.7ZM105.02 158.13C111.07 158.13 113.39 151.66 113.39 141.69C113.39 131.72 111.08 125.31 105.02 125.31C98.96 125.31 96.53 131.84 96.53 141.69C96.53 151.54 98.78 158.13 105.02 158.13Z" fill="black"/>
<path d="M127.1 120.51H140.69C149.83 120.51 155.59 128.22 155.59 141.75C155.59 155.28 150.13 162.94 140.93 162.94H127.1V120.51ZM140.09 157.31C146.97 157.31 148.93 150.01 148.93 141.76C148.93 133.51 146.91 126.15 140.09 126.15H133.5V157.31H140.09Z" fill="black"/>
<path d="M199.66 120.51H226.54V126.15H206.24V138.91H222.68V144.55H206.24V162.95H199.65V120.52L199.66 120.51Z" fill="black"/>
<path d="M232.3 141.7C232.3 127.81 238.12 119.68 247.43 119.68C256.74 119.68 262.45 127.81 262.45 141.7C262.45 155.59 256.69 163.77 247.43 163.77C238.17 163.77 232.3 155.58 232.3 141.7ZM247.43 158.13C253.48 158.13 255.8 151.66 255.8 141.69C255.8 131.72 253.49 125.31 247.43 125.31C241.37 125.31 238.94 131.84 238.94 141.69C238.94 151.54 241.19 158.13 247.43 158.13Z" fill="black"/>
<path d="M270.21 120.51H285.4C293.11 120.51 297.45 124.9 297.45 132.73C297.45 138.13 294.78 142.05 290.8 143.12V143.24C299.05 145.08 296.03 161.81 297.92 162.53V162.94H291.09C289.49 161.16 292.81 146.32 284.56 146.32H276.72V162.94H270.19V120.51H270.21ZM284.1 140.69C288.49 140.69 290.98 138.14 290.98 133.15C290.98 128.58 288.9 126.15 284.15 126.15H276.73V140.69H284.09H284.1Z" fill="black"/>
<path d="M342.84 120.51H349.43V157.3H368.89V162.94H342.84V120.51Z" fill="black"/>
<path d="M374.7 141.7C374.7 127.81 380.52 119.68 389.83 119.68C399.14 119.68 404.85 127.81 404.85 141.7C404.85 155.59 399.09 163.77 389.83 163.77C380.57 163.77 374.7 155.58 374.7 141.7ZM389.84 158.13C395.89 158.13 398.21 151.66 398.21 141.69C398.21 131.72 395.9 125.31 389.84 125.31C383.78 125.31 381.35 131.84 381.35 141.69C381.35 151.54 383.6 158.13 389.84 158.13Z" fill="black"/>
<path d="M411.85 120.51H419.15L432.38 153.15H432.5V120.51H438.91V162.94H431.61L418.2 130.3H418.08L418.26 162.94H411.85V120.51Z" fill="black"/>
<path d="M446.33 141.94C446.33 129.06 451.61 119.69 461.35 119.69C469.01 119.69 473.81 125.45 474.7 133.63H468.05C467.46 128.23 464.96 125.33 461.29 125.33C455 125.33 452.98 133.76 452.98 141.71C452.98 149.66 454.82 158.15 461.05 158.15C465.74 158.15 468.47 153.58 468.53 146.22H461.35V140.76H475.18V162.96H470.67L469.66 157.08H469.54C467.7 161.65 464.61 163.79 460.28 163.79C451.2 163.79 446.33 154.47 446.33 141.95V141.94Z" fill="black"/>
<path d="M484.06 120.51H510.47V126.15H490.65V138.2H507.92V143.84H490.65V157.31H511V162.95H484.06V120.52V120.51Z" fill="black"/>
<path d="M516.11 120.51H523.23L532.37 156.06H532.43L541.45 120.51H548.28L535.88 162.94H528.82L516.12 120.51H516.11Z" fill="black"/>
<path d="M554.79 157.31H564.46V126.15H554.79V120.51H580.78V126.15H571.05V157.31H580.78V162.95H554.79V157.31Z" fill="black"/>
<path d="M600.13 126.15H588.02V120.51H618.76V126.15H606.65V162.94H600.12V126.15H600.13Z" fill="black"/>
<path d="M635.73 145.91L622.2 120.51H629.26L638.93 140.81H639.05L648.84 120.51H655.78L642.25 145.91V162.94H635.72V145.91H635.73Z" fill="black"/>
</svg>
