<svg width="1080" height="461" viewBox="0 0 1080 461" fill="none" xmlns="http://www.w3.org/2000/svg">
<g clip-path="url(#clip0_3714_144)">
<path d="M662.15 444.67C777.644 444.67 871.27 351.044 871.27 235.55C871.27 120.056 777.644 26.4302 662.15 26.4302C546.657 26.4302 453.03 120.056 453.03 235.55C453.03 351.044 546.657 444.67 662.15 444.67Z" fill="black"/>
<path d="M0 10.6401V460.47H449.83V10.6401H0ZM224.91 444.67C109.42 444.67 15.79 351.05 15.79 235.55C15.79 120.05 109.42 26.4301 224.91 26.4301C340.4 26.4301 434.03 120.06 434.03 235.55C434.03 351.04 340.4 444.67 224.91 444.67Z" fill="black"/>
<path d="M1053.51 0C1073 1.72 1084.3 19.57 1076.46 37.7C1073.42 44.73 1070.69 45.33 1064.91 49.09C1064.55 49.32 1064.25 49.05 1064.43 49.91C1079.68 53.17 1076.3 73.06 1078.2 84.8C1078.61 87.37 1079.69 89.53 1079.99 92.07H1067.58C1064.67 85.93 1065.22 78.56 1064.43 71.92C1063.71 65.89 1063.11 57.46 1056.37 55.19C1053.49 54.23 1046.16 53.96 1041.31 53.96C1025.26 53.96 1018.87 53.58 1018.87 43.25V92.06H1006.65V0H1053.51ZM1018.88 43.26C1027.96 42.87 1037.46 43.78 1046.49 43.28C1057.6 42.66 1066.97 38.56 1065.87 25.75C1065.14 17.26 1057.82 11.47 1049.43 11.47H1018.87V43.27L1018.88 43.26Z" fill="black"/>
<path d="M993.07 0V11.83H960.47V92.07H948.24V11.83H915.28V0H993.07Z" fill="black"/>
</g>
<defs>
<clipPath id="clip0_3714_144">
<rect width="1080" height="460.47" fill="white"/>
</clipPath>
</defs>
</svg>
