<svg width="1080" height="330" viewBox="0 0 1080 330" fill="none" xmlns="http://www.w3.org/2000/svg">
<path d="M94.4634 183.427H132.888V191.475H103.879V209.705H127.373V217.762H103.879V244.049H94.4634V183.427Z" fill="black"/>
<path d="M141.102 213.693C141.102 193.859 149.415 182.244 162.731 182.244C176.047 182.244 184.189 193.859 184.189 213.693C184.189 233.527 175.958 245.232 162.731 245.232C149.504 245.232 141.102 233.527 141.102 213.693ZM162.731 237.175C171.384 237.175 174.693 227.935 174.693 213.684C174.693 199.434 171.384 190.283 162.731 190.283C154.078 190.283 150.598 199.604 150.598 213.684C150.598 227.764 153.818 237.175 162.731 237.175Z" fill="black"/>
<path d="M191.982 213.693C191.982 193.859 200.295 182.244 213.611 182.244C226.927 182.244 235.069 193.859 235.069 213.693C235.069 233.527 226.837 245.232 213.611 245.232C200.384 245.232 191.982 233.527 191.982 213.693ZM213.611 237.175C222.264 237.175 225.573 227.935 225.573 213.684C225.573 199.434 222.264 190.283 213.611 190.283C204.957 190.283 201.478 199.604 201.478 213.684C201.478 227.764 204.697 237.175 213.611 237.175Z" fill="black"/>
<path d="M245.148 183.427H264.571C277.637 183.427 285.869 194.451 285.869 213.774C285.869 233.097 278.067 244.049 264.921 244.049H245.157V183.427H245.148ZM263.728 235.992C273.566 235.992 276.363 225.568 276.363 213.774C276.363 201.979 273.485 191.475 263.728 191.475H254.313V235.992H263.728Z" fill="black"/>
<path d="M344.622 183.427H383.046V191.475H354.037V209.705H377.531V217.762H354.037V244.049H344.622V183.427Z" fill="black"/>
<path d="M391.26 213.693C391.26 193.859 399.573 182.244 412.889 182.244C426.205 182.244 434.348 193.859 434.348 213.693C434.348 233.527 426.116 245.232 412.889 245.232C399.663 245.232 391.26 233.527 391.26 213.693ZM412.889 237.175C421.543 237.175 424.851 227.935 424.851 213.684C424.851 199.434 421.543 190.283 412.889 190.283C404.236 190.283 400.757 199.604 400.757 213.684C400.757 227.764 403.976 237.175 412.889 237.175Z" fill="black"/>
<path d="M445.449 183.427H467.167C478.197 183.427 484.385 189.701 484.385 200.895C484.385 208.611 480.565 214.204 474.879 215.728V215.898C486.671 218.533 482.34 242.436 485.057 243.458V244.049H475.301C473.014 241.504 477.767 220.307 465.975 220.307H454.775V244.049H445.44V183.427H445.449ZM465.302 212.25C471.579 212.25 475.139 208.602 475.139 201.477C475.139 194.944 472.171 191.475 465.383 191.475H454.784V212.25H465.302Z" fill="black"/>
<path d="M545.003 183.427H554.418V235.992H582.244V244.049H545.003V183.427Z" fill="black"/>
<path d="M590.538 213.693C590.538 193.859 598.851 182.244 612.167 182.244C625.483 182.244 633.626 193.859 633.626 213.693C633.626 233.527 625.394 245.232 612.167 245.232C598.94 245.232 590.538 233.527 590.538 213.693ZM612.176 237.175C620.829 237.175 624.138 227.935 624.138 213.684C624.138 199.434 620.829 190.283 612.176 190.283C603.523 190.283 600.043 199.604 600.043 213.684C600.043 227.764 603.263 237.175 612.176 237.175Z" fill="black"/>
<path d="M643.624 183.427H654.062L672.983 230.05H673.153V183.427H682.318V244.049H671.88L652.708 197.417H652.537L652.789 244.049H643.624V183.427Z" fill="black"/>
<path d="M692.899 214.034C692.899 195.634 700.45 182.235 714.367 182.235C725.307 182.235 732.175 190.462 733.449 202.159H723.944C723.092 194.442 719.532 190.292 714.268 190.292C705.274 190.292 702.395 202.329 702.395 213.693C702.395 225.058 705.023 237.184 713.936 237.184C720.635 237.184 724.544 230.65 724.625 220.146H714.358V212.34H734.121V244.049H727.674L726.23 235.651H726.06C723.432 242.185 719.021 245.241 712.824 245.241C699.849 245.241 692.89 231.932 692.89 214.043L692.899 214.034Z" fill="black"/>
<path d="M746.828 183.427H784.58V191.475H756.243V208.692H780.93V216.749H756.243V235.992H785.342V244.049H746.828V183.427Z" fill="black"/>
<path d="M792.623 183.427H802.801L815.866 234.217H815.947L828.842 183.427H838.598L820.87 244.049H810.782L792.623 183.427Z" fill="black"/>
<path d="M847.915 235.992H861.742V191.475H847.915V183.427H885.075V191.475H871.167V235.992H885.075V244.049H847.915V235.992Z" fill="black"/>
<path d="M912.703 191.475H895.396V183.427H939.336V191.475H922.029V244.049H912.694V191.475H912.703Z" fill="black"/>
<path d="M963.583 219.707L944.241 183.418H954.338L968.165 212.412H968.336L982.333 183.418H992.26L972.918 219.707V244.04H963.583V219.707Z" fill="black"/>
<path d="M86.922 315.409H59.2671V306.93L86.922 270.229H96.0864V307.531H104.399V315.418H96.0864V328.817H86.922V315.418V315.409ZM86.922 307.522V282.006L67.6694 307.522H86.922Z" fill="black"/>
<path d="M113.456 288.109V280.652C127.535 280.563 131.184 278.107 131.946 270.229H139.246V320.93H153.244V328.817H113.456V320.93H129.992V285.322C126.853 287.607 121.76 288.118 113.456 288.118V288.109Z" fill="black"/>
<path d="M178.585 318.375H189.103V328.808H178.585V318.375Z" fill="black"/>
<path d="M231.76 303.112C240.494 297.43 245.337 294.544 245.337 286.917C245.337 282.167 243.301 276.915 236.262 276.915C228.209 276.915 225.232 282.938 225.232 290.905H215.897C215.897 278.438 222.434 269.028 236.513 269.028C246.861 269.028 254.833 275.382 254.833 286.576C254.833 297.771 246.691 303.363 238.378 309.045C231.59 313.545 228.281 316.09 226.757 320.751V320.921H254.412V328.808H214.624C214.624 318.205 220.39 310.659 231.76 303.121V303.112Z" fill="black"/>
<path d="M290.442 315.409H262.787V306.93L290.442 270.229H299.606V307.531H307.919V315.418H299.606V328.817H290.442V315.418V315.409ZM290.442 307.522V282.006L271.189 307.522H290.442Z" fill="black"/>
<path d="M336.569 269.028C352.262 269.028 357.696 283.61 357.696 299.886C357.696 316.162 352.271 329.982 336.569 329.982C320.868 329.982 315.272 316.251 315.272 299.886C315.272 283.52 320.787 269.028 336.569 269.028ZM336.569 322.104C346.496 322.104 348.191 311.501 348.191 299.975C348.191 288.45 346.487 276.915 336.569 276.915C326.651 276.915 324.777 288.36 324.777 299.895C324.777 311.429 326.642 322.113 336.569 322.113V322.104ZM331.825 294.123H340.99V304.215H331.825V294.123Z" fill="black"/>
<path d="M407.724 299.294C407.724 318.537 399.833 329.982 386.427 329.982C376.329 329.982 369.461 322.776 368.358 313.966H377.683C378.195 318.626 380.652 322.355 386.507 322.355C396.012 322.355 398.64 312.272 398.64 302.01V301.078L398.47 300.997C395.672 306.079 390.749 308.875 384.812 308.875C374.204 308.875 366.824 300.827 366.824 289.382C366.824 277.936 374.375 269.037 386.418 269.037C402.2 269.037 407.715 281.495 407.715 299.303L407.724 299.294ZM386.346 301.167C393.385 301.167 397.887 296.166 397.887 288.7C397.887 281.235 393.896 276.664 386.776 276.664C379.656 276.664 376.177 281.414 376.177 288.871C376.177 296.327 380.078 301.167 386.355 301.167H386.346Z" fill="black"/>
<path d="M425.183 279.72C425.183 273.778 429.425 266.993 438.248 266.993C447.072 266.993 451.314 273.778 451.314 279.72C451.314 285.662 446.991 292.518 438.248 292.518C429.505 292.518 425.183 285.734 425.183 279.72ZM438.248 287.087C442.49 287.087 445.458 284.121 445.458 279.72C445.458 275.319 442.49 272.424 438.248 272.424C434.007 272.424 431.039 275.4 431.039 279.72C431.039 284.04 434.007 287.087 438.248 287.087Z" fill="black"/>
<path d="M469.786 268.176H480.224L499.145 314.808H499.315V268.176H508.48V328.799H498.042L478.87 282.167H478.7L478.951 328.799H469.786V268.176Z" fill="black"/>
<path d="M590.969 269.028C606.662 269.028 612.096 283.61 612.096 299.886C612.096 316.162 606.671 329.982 590.969 329.982C575.267 329.982 569.672 316.251 569.672 299.886C569.672 283.52 575.187 269.028 590.969 269.028ZM590.969 322.104C600.896 322.104 602.59 311.501 602.59 299.975C602.59 288.45 600.887 276.915 590.969 276.915C581.051 276.915 579.177 288.36 579.177 299.895C579.177 311.429 581.042 322.113 590.969 322.113V322.104ZM586.225 294.123H595.39V304.215H586.225V294.123Z" fill="black"/>
<path d="M638.8 303.112C647.534 297.43 652.376 294.544 652.376 286.917C652.376 282.167 650.341 276.915 643.301 276.915C635.249 276.915 632.272 282.938 632.272 290.905H622.937C622.937 278.438 629.474 269.028 643.553 269.028C653.901 269.028 661.873 275.382 661.873 286.576C661.873 297.771 653.73 303.363 645.418 309.045C638.63 313.545 635.321 316.09 633.796 320.751V320.921H661.451V328.808H621.664C621.664 318.205 627.429 310.659 638.8 303.121V303.112Z" fill="black"/>
<path d="M687.384 318.375H697.903V328.808H687.384V318.375Z" fill="black"/>
<path d="M724.024 288.109V280.652C738.103 280.563 741.753 278.107 742.515 270.229H749.814V320.93H763.812V328.817H724.024V320.93H740.56V285.322C737.421 287.607 732.328 288.118 724.024 288.118V288.109Z" fill="black"/>
<path d="M774.904 288.109V280.652C788.983 280.563 792.632 278.107 793.395 270.229H800.694V320.93H814.692V328.817H774.904V320.93H791.44V285.322C788.301 287.607 783.208 288.118 774.904 288.118V288.109Z" fill="black"/>
<path d="M825.183 311.681H834.509C835.02 317.013 838.078 322.104 845.449 322.104C852.067 322.104 856.398 317.444 856.398 308.795C856.398 300.146 852.408 296.839 845.799 296.839C841.557 296.839 837.657 298.542 835.191 302.1H825.945L831.882 270.229H863.267V278.107H838.751L835.863 294.302V294.473C838.661 291.336 842.732 289.391 848.337 289.391C858.774 289.391 865.894 297.618 865.894 308.804C865.894 321.781 857.241 330 845.96 330C832.644 330 825.605 321.521 825.174 311.69L825.183 311.681Z" fill="black"/>
<path d="M905.843 278.268V278.098H876.153V270.22H916.021V277.255C899.817 288.36 893.119 310.148 893.119 328.808H883.533C883.533 309.476 892.697 287.517 905.843 278.268Z" fill="black"/>
<path d="M933.982 279.72C933.982 273.778 938.224 266.993 947.048 266.993C955.871 266.993 960.113 273.778 960.113 279.72C960.113 285.662 955.782 292.518 947.048 292.518C938.314 292.518 933.982 285.734 933.982 279.72ZM947.048 287.087C951.289 287.087 954.257 284.121 954.257 279.72C954.257 275.319 951.289 272.424 947.048 272.424C942.806 272.424 939.838 275.4 939.838 279.72C939.838 284.04 942.806 287.087 947.048 287.087Z" fill="black"/>
<path d="M974.945 268.176H983.939L988.01 315.149H988.18L994.116 283.009H1001.75L1007.68 315.149H1007.76L1011.92 268.176H1020.91L1012.94 328.799H1004.29L997.919 291.658H997.838L991.561 328.799H982.907L974.936 268.176H974.945Z" fill="black"/>
<path d="M816.249 0.0056503C860.159 -0.534066 883.879 37.6759 873.709 78.3945C866.129 108.719 839.269 124.56 808.669 120.852C737.899 112.287 740.619 0.935162 816.249 0.0056503ZM812.019 14.9978C760.019 19.5954 762.389 101.233 811.419 106.43C834.559 108.888 853.339 96.0752 858.249 73.2672C865.239 40.8042 847.579 11.8594 812.019 14.9978Z" fill="black"/>
<path d="M681.829 0.00562376C710.069 -0.304214 734.029 16.7169 739.759 44.7521C748.689 88.3892 720.539 126.359 674.249 120.862C603.36 112.437 605.87 0.855178 681.829 0.00562376ZM677.609 14.9978C625.089 19.6353 628.03 101.712 677.009 106.43C699.669 108.609 718.219 96.6449 723.469 74.2866C731.119 41.6937 713.529 11.8194 677.619 14.9878L677.609 14.9978Z" fill="black"/>
<path d="M174.46 2.7041C199.11 4.87296 213.39 27.4311 203.48 50.3491C199.64 59.2344 196.19 59.994 188.88 64.7315C188.43 65.0214 188.04 64.6816 188.28 65.771C207.56 69.8888 203.29 95.0256 205.68 109.858C206.2 113.106 207.56 115.835 207.95 119.043H192.26C188.58 111.287 189.27 101.972 188.27 93.5864C187.37 85.9704 186.61 75.306 178.08 72.4475C174.44 71.2281 165.17 70.8983 159.04 70.8983C138.75 70.8983 130.67 70.4185 130.67 57.3654V119.043H115.21V2.7041H174.46ZM130.67 57.3754C142.15 56.8757 154.17 58.035 165.58 57.3954C179.63 56.6058 191.48 51.4285 190.09 35.247C189.17 24.5226 179.91 17.1965 169.31 17.1965H130.67V57.3754Z" fill="black"/>
<path d="M580.949 2.7041C605.599 4.87296 619.879 27.4311 609.969 50.3491C606.129 59.2344 602.679 59.994 595.369 64.7315C594.919 65.0214 594.529 64.6816 594.769 65.771C614.049 69.8888 609.779 95.0256 612.169 109.858C612.689 113.106 614.049 115.835 614.439 119.043H598.749C595.069 111.287 595.759 101.972 594.759 93.5864C593.859 85.9704 593.099 75.306 584.569 72.4475C580.929 71.2281 571.659 70.8983 565.529 70.8983C545.239 70.8983 537.159 70.4185 537.159 57.3654V119.043H521.699V2.7041H580.949ZM537.159 57.3754C548.639 56.8757 560.659 58.035 572.069 57.3954C586.119 56.6058 597.969 51.4285 596.579 35.247C595.659 24.5226 586.399 17.1965 575.799 17.1965H537.159V57.3754Z" fill="black"/>
<path d="M1078.61 37.7457H1061.75C1060.53 22.8036 1049.63 15.1976 1035.31 14.358C1019.78 13.4485 1002.91 19.0056 1004.59 37.5259C1005.37 46.0814 1013.62 49.1497 1020.91 50.6889C1041.46 55.0067 1075.12 50.9888 1079.49 78.6842C1083.28 102.682 1065.5 118.074 1043.19 120.852C1015.19 124.34 984.469 112.536 984.939 80.2634H1001.57L1002.2 81.033C1002.48 96.0351 1013.35 105.4 1027.8 106.889C1042.48 108.399 1063.04 104.351 1063.65 86.1203C1064.04 74.3065 1055.53 70.3386 1045.46 68.2597C1025.85 64.2018 993.669 67.65 988.829 41.5837C979.639 -7.94028 1063.88 -13.2775 1076.61 25.9719C1077.9 29.9598 1078.04 33.6479 1078.62 37.7557L1078.61 37.7457Z" fill="black"/>
<path d="M441.19 2.7041V17.1865H371.87V51.7683H436.03V66.2507H371.87V104.101H442.12V119.053H356.41V2.7041H441.19Z" fill="black"/>
<path d="M246.35 2.7041L246.33 70.7084C244.92 117.054 314.42 118.783 315.68 73.0472L315.66 2.7041H331.12V74.4265C330.11 137.283 232.41 136.264 230.87 74.4464L230.89 2.7041H246.35Z" fill="black"/>
<path d="M98.3499 2.7041V17.6563H57.1399V119.053H41.68V17.6563H0V2.7041H98.3499Z" fill="black"/>
<path d="M976.509 2.7041V17.6563H934.829V119.053H919.369V17.6563H878.159V2.7041H976.509Z" fill="black"/>
</svg>
