<svg width="1080" height="324" viewBox="0 0 1080 324" fill="none" xmlns="http://www.w3.org/2000/svg">
<g clip-path="url(#clip0_3714_126)">
<path d="M816.25 202.2C860.16 201.66 883.88 239.89 873.71 280.63C866.13 310.97 839.27 326.82 808.67 323.11C737.9 314.53 740.63 203.13 816.26 202.2H816.25ZM812.02 217.19C760.02 221.79 762.39 303.47 811.42 308.67C834.56 311.13 853.34 298.31 858.25 275.49C865.24 243.01 847.58 214.05 812.02 217.19Z" fill="black"/>
<path d="M681.83 202.2C710.07 201.89 734.03 218.92 739.76 246.97C748.69 290.63 720.54 328.62 674.25 323.12C603.36 314.69 605.88 203.05 681.83 202.21V202.2ZM677.61 217.19C625.09 221.83 628.03 303.95 677.01 308.67C699.67 310.85 718.22 298.88 723.47 276.51C731.12 243.9 713.53 214.01 677.62 217.18L677.61 217.19Z" fill="black"/>
<path d="M174.46 204.89C199.11 207.06 213.39 229.63 203.48 252.56C199.64 261.45 196.19 262.21 188.88 266.95C188.43 267.24 188.04 266.9 188.28 267.99C207.56 272.11 203.29 297.26 205.68 312.1C206.2 315.35 207.56 318.08 207.95 321.29H192.26C188.58 313.53 189.27 304.21 188.27 295.82C187.37 288.2 186.61 277.53 178.08 274.67C174.44 273.45 165.17 273.12 159.04 273.12C138.75 273.12 130.67 272.64 130.67 259.58V321.29H115.21V204.88H174.46V204.89ZM130.67 259.59C142.15 259.09 154.17 260.25 165.58 259.61C179.63 258.82 191.48 253.64 190.09 237.45C189.17 226.72 179.91 219.39 169.31 219.39H130.67V259.59Z" fill="black"/>
<path d="M580.95 204.89C605.6 207.06 619.88 229.63 609.97 252.56C606.13 261.45 602.68 262.21 595.37 266.95C594.92 267.24 594.53 266.9 594.77 267.99C614.05 272.11 609.78 297.26 612.17 312.1C612.69 315.35 614.05 318.08 614.44 321.29H598.75C595.07 313.53 595.76 304.21 594.76 295.82C593.86 288.2 593.1 277.53 584.57 274.67C580.93 273.45 571.66 273.12 565.53 273.12C545.24 273.12 537.16 272.64 537.16 259.58V321.29H521.7V204.88H580.95V204.89ZM537.16 259.59C548.64 259.09 560.66 260.25 572.07 259.61C586.12 258.82 597.97 253.64 596.58 237.45C595.66 226.72 586.4 219.39 575.8 219.39H537.16V259.59Z" fill="black"/>
<path d="M1078.61 239.95H1061.75C1060.53 225 1049.63 217.39 1035.31 216.55C1019.78 215.64 1002.91 221.2 1004.59 239.73C1005.37 248.29 1013.62 251.36 1020.91 252.9C1041.46 257.22 1075.12 253.2 1079.49 280.91C1083.28 304.92 1065.5 320.32 1043.19 323.1C1015.19 326.59 984.47 314.78 984.94 282.49H1001.57L1002.2 283.26C1002.48 298.27 1013.35 307.64 1027.8 309.13C1042.48 310.64 1063.04 306.59 1063.65 288.35C1064.04 276.53 1055.53 272.56 1045.46 270.48C1025.85 266.42 993.67 269.87 988.83 243.79C979.64 194.24 1063.88 188.9 1076.61 228.17C1077.9 232.16 1078.04 235.85 1078.62 239.96L1078.61 239.95Z" fill="black"/>
<path d="M441.19 204.89V219.38H371.87V253.98H436.03V268.47H371.87V306.34H442.12V321.3H356.41V204.89H441.19Z" fill="black"/>
<path d="M246.35 204.89L246.33 272.93C244.92 319.3 314.42 321.03 315.68 275.27L315.66 204.89H331.12V276.65C330.11 339.54 232.41 338.52 230.87 276.67L230.89 204.89H246.35Z" fill="black"/>
<path d="M98.35 204.89V219.85H57.14V321.3H41.68V219.85H0V204.89H98.35Z" fill="black"/>
<path d="M976.51 204.89V219.85H934.83V321.3H919.37V219.85H878.16V204.89H976.51Z" fill="black"/>
<path d="M599.68 117.14C630.105 117.14 654.77 92.4753 654.77 62.05C654.77 31.6246 630.105 6.95996 599.68 6.95996C569.254 6.95996 544.59 31.6246 544.59 62.05C544.59 92.4753 569.254 117.14 599.68 117.14Z" fill="black"/>
<path d="M425.25 2.7998V121.3H543.75V2.7998H425.25ZM484.5 117.14C454.07 117.14 429.41 92.4798 429.41 62.0498C429.41 31.6198 454.07 6.9598 484.5 6.9598C514.93 6.9598 539.59 31.6298 539.59 62.0498C539.59 92.4698 514.93 117.14 484.5 117.14Z" fill="black"/>
<path d="M702.79 0C707.93 0.45 710.9 5.15 708.84 9.93C708.04 11.78 707.32 11.94 705.8 12.93C705.71 12.99 705.63 12.92 705.67 13.15C709.69 14.01 708.8 19.25 709.3 22.34C709.41 23.02 709.69 23.59 709.77 24.25H706.5C705.73 22.63 705.88 20.69 705.67 18.94C705.48 17.35 705.32 15.13 703.55 14.53C702.79 14.28 700.86 14.21 699.58 14.21C695.35 14.21 693.67 14.11 693.67 11.39V24.25H690.45V0H702.79ZM693.66 11.4C696.05 11.3 698.56 11.54 700.93 11.4C703.86 11.24 706.33 10.16 706.04 6.78C705.85 4.54 703.92 3.02 701.71 3.02H693.66V11.4Z" fill="black"/>
<path d="M686.86 0V3.12H678.27V24.25H675.05V3.12H666.37V0H686.86Z" fill="black"/>
</g>
<defs>
<clipPath id="clip0_3714_126">
<rect width="1080" height="324" fill="white"/>
</clipPath>
</defs>
</svg>
