<svg width="1080" height="248" viewBox="0 0 1080 248" fill="none" xmlns="http://www.w3.org/2000/svg">
<g clip-path="url(#clip0_3714_203)">
<path d="M1010.57 3.92969C1061.67 8.42969 1091.29 55.2197 1070.74 102.76C1062.77 121.19 1055.62 122.76 1040.46 132.6C1039.52 133.21 1038.72 132.49 1039.21 134.76C1079.17 143.31 1070.34 195.44 1075.29 226.21C1076.38 232.95 1079.2 238.62 1079.99 245.26H1047.46C1039.84 229.18 1041.26 209.85 1039.2 192.45C1037.32 176.65 1035.75 154.53 1018.07 148.61C1010.53 146.08 989.35 147.77 976.65 147.77C934.58 147.77 919.78 144.41 919.78 117.33V245.27H887.74V3.92969H1010.57ZM919.78 117.33C943.57 116.3 968.5 118.7 992.16 117.37C1021.28 115.74 1045.85 105 1042.97 71.4197C1041.07 49.1697 1021.87 33.9797 999.88 33.9797H919.77V117.34L919.78 117.33Z" fill="black"/>
<path d="M203.92 2.58984V33.6098H118.46V243.93H86.42V33.6098H0V2.58984H203.92Z" fill="black"/>
<path d="M682.77 239.15C746.404 239.15 797.99 187.564 797.99 123.93C797.99 60.2957 746.404 8.70996 682.77 8.70996C619.136 8.70996 567.55 60.2957 567.55 123.93C567.55 187.564 619.136 239.15 682.77 239.15Z" fill="black"/>
<path d="M317.93 0V247.86H565.78V0H317.93ZM441.85 239.15C378.21 239.15 326.63 187.56 326.63 123.93C326.63 60.3 378.22 8.7 441.85 8.7C505.48 8.7 557.07 60.29 557.07 123.92C557.07 187.55 505.48 239.14 441.85 239.14V239.15Z" fill="black"/>
</g>
<defs>
<clipPath id="clip0_3714_203">
<rect width="1080" height="247.86" fill="white"/>
</clipPath>
</defs>
</svg>
