<svg width="1080" height="225" viewBox="0 0 1080 225" fill="none" xmlns="http://www.w3.org/2000/svg">
<g clip-path="url(#clip0_3714_62)">
<path d="M816.25 -0.000206108C860.16 -0.540206 883.88 37.6898 873.71 78.4298C866.13 108.77 839.27 124.62 808.67 120.91C737.9 112.34 740.62 0.929794 816.25 -0.000206108ZM812.02 14.9998C760.02 19.5998 762.39 101.28 811.42 106.48C834.56 108.94 853.34 96.1198 858.25 73.2998C865.24 40.8198 847.58 11.8598 812.02 14.9998Z" fill="black"/>
<path d="M681.83 -0.000233432C710.07 -0.310233 734.03 16.7198 739.76 44.7698C748.69 88.4298 720.54 126.42 674.25 120.92C603.36 112.49 605.87 0.849767 681.83 -0.000233432ZM677.61 14.9998C625.09 19.6398 628.03 101.76 677.01 106.48C699.67 108.66 718.22 96.6898 723.47 74.3198C731.12 41.7098 713.53 11.8198 677.62 14.9898L677.61 14.9998Z" fill="black"/>
<path d="M174.46 2.69971C199.11 4.86971 213.39 27.4397 203.48 50.3697C199.64 59.2597 196.19 60.0197 188.88 64.7597C188.43 65.0497 188.04 64.7097 188.28 65.7997C207.56 69.9197 203.29 95.0697 205.68 109.91C206.2 113.16 207.56 115.89 207.95 119.1H192.26C188.58 111.34 189.27 102.02 188.27 93.6297C187.37 86.0097 186.61 75.3397 178.08 72.4797C174.44 71.2597 165.17 70.9297 159.04 70.9297C138.75 70.9297 130.67 70.4497 130.67 57.3897V119.1H115.21V2.69971H174.46ZM130.67 57.3997C142.15 56.8997 154.17 58.0597 165.58 57.4197C179.63 56.6297 191.48 51.4497 190.09 35.2597C189.17 24.5297 179.91 17.1997 169.31 17.1997H130.67V57.3997Z" fill="black"/>
<path d="M580.95 2.69971C605.6 4.86971 619.88 27.4397 609.97 50.3697C606.13 59.2597 602.68 60.0197 595.37 64.7597C594.92 65.0497 594.53 64.7097 594.77 65.7997C614.05 69.9197 609.78 95.0697 612.17 109.91C612.69 113.16 614.05 115.89 614.44 119.1H598.75C595.07 111.34 595.76 102.02 594.76 93.6297C593.86 86.0097 593.1 75.3397 584.57 72.4797C580.93 71.2597 571.66 70.9297 565.53 70.9297C545.24 70.9297 537.16 70.4497 537.16 57.3897V119.1H521.7V2.69971H580.95ZM537.16 57.3997C548.64 56.8997 560.66 58.0597 572.07 57.4197C586.12 56.6297 597.97 51.4497 596.58 35.2597C595.66 24.5297 586.4 17.1997 575.8 17.1997H537.16V57.3997Z" fill="black"/>
<path d="M1078.61 37.7597H1061.75C1060.53 22.8097 1049.63 15.1997 1035.31 14.3597C1019.78 13.4497 1002.91 19.0097 1004.59 37.5397C1005.37 46.0997 1013.62 49.1697 1020.91 50.7097C1041.46 55.0297 1075.12 51.0097 1079.49 78.7197C1083.28 102.73 1065.5 118.13 1043.19 120.91C1015.19 124.4 984.47 112.59 984.94 80.2997H1001.57L1002.2 81.0697C1002.48 96.0797 1013.35 105.45 1027.8 106.94C1042.48 108.45 1063.04 104.4 1063.65 86.1597C1064.04 74.3397 1055.53 70.3697 1045.46 68.2897C1025.85 64.2297 993.67 67.6797 988.83 41.5997C979.64 -7.95032 1063.88 -13.2903 1076.61 25.9797C1077.9 29.9697 1078.04 33.6597 1078.62 37.7697L1078.61 37.7597Z" fill="black"/>
<path d="M441.19 2.69971V17.1897H371.87V51.7897H436.03V66.2797H371.87V104.15H442.12V119.11H356.41V2.69971H441.19Z" fill="black"/>
<path d="M246.35 2.69971L246.33 70.7397C244.92 117.11 314.42 118.84 315.68 73.0797L315.66 2.69971H331.12V74.4597C330.11 137.35 232.41 136.33 230.87 74.4797L230.89 2.69971H246.35Z" fill="black"/>
<path d="M98.35 2.69971V17.6597H57.14V119.11H41.68V17.6597H0V2.69971H98.35Z" fill="black"/>
<path d="M976.51 2.69971V17.6597H934.83V119.11H919.37V17.6597H878.16V2.69971H976.51Z" fill="black"/>
<path d="M202.66 182.39H228.83V187.73H208.6V201.08H227.05V206.42H208.6V223.92H202.66V182.38V182.39Z" fill="black"/>
<path d="M242.3 221.94C240.01 220.22 238.26 217.76 237.08 214.55C235.89 211.35 235.3 207.55 235.3 203.16C235.3 198.77 235.89 194.97 237.08 191.77C238.26 188.57 240.01 186.1 242.3 184.38C244.59 182.66 247.36 181.8 250.6 181.8C253.84 181.8 256.61 182.66 258.91 184.38C261.2 186.1 262.94 188.56 264.13 191.77C265.32 194.98 265.91 198.77 265.91 203.16C265.91 207.55 265.32 211.35 264.13 214.55C262.94 217.75 261.2 220.22 258.91 221.94C256.62 223.66 253.85 224.52 250.6 224.52C247.35 224.52 244.59 223.66 242.3 221.94ZM255.82 217.28C257.21 216.01 258.24 214.17 258.94 211.76C259.63 209.35 259.98 206.48 259.98 203.16C259.98 198.1 259.19 194.16 257.61 191.35C256.03 188.54 253.73 187.14 250.73 187.14H250.49C248.47 187.14 246.77 187.77 245.39 189.04C244.01 190.31 242.97 192.15 242.28 194.56C241.59 196.97 241.24 199.84 241.24 203.16C241.24 208.22 242.03 212.16 243.61 214.97C245.19 217.78 247.48 219.18 250.49 219.18H250.73C252.75 219.18 254.44 218.55 255.83 217.28H255.82Z" fill="black"/>
<path d="M277.9 221.94C275.61 220.22 273.86 217.76 272.68 214.55C271.49 211.35 270.9 207.55 270.9 203.16C270.9 198.77 271.49 194.97 272.68 191.77C273.86 188.57 275.61 186.1 277.9 184.38C280.19 182.66 282.96 181.8 286.2 181.8C289.44 181.8 292.21 182.66 294.51 184.38C296.8 186.1 298.54 188.56 299.73 191.77C300.92 194.97 301.51 198.77 301.51 203.16C301.51 207.55 300.92 211.35 299.73 214.55C298.54 217.75 296.8 220.22 294.51 221.94C292.22 223.66 289.45 224.52 286.2 224.52C282.95 224.52 280.19 223.66 277.9 221.94ZM291.42 217.28C292.81 216.01 293.84 214.17 294.54 211.76C295.23 209.35 295.58 206.48 295.58 203.16C295.58 198.1 294.79 194.16 293.21 191.35C291.63 188.54 289.33 187.14 286.33 187.14H286.09C284.07 187.14 282.37 187.77 280.99 189.04C279.61 190.31 278.57 192.15 277.88 194.56C277.19 196.97 276.84 199.84 276.84 203.16C276.84 208.22 277.63 212.16 279.21 214.97C280.79 217.78 283.08 219.18 286.09 219.18H286.33C288.35 219.18 290.04 218.55 291.43 217.28H291.42Z" fill="black"/>
<path d="M308.52 182.39H319.73C323.13 182.39 326.15 183.2 328.78 184.82C331.41 186.44 333.46 188.82 334.92 191.97C336.38 195.11 337.11 198.86 337.11 203.21C337.11 207.56 336.39 211.3 334.94 214.43C333.5 217.55 331.48 219.92 328.89 221.52C326.3 223.12 323.3 223.92 319.9 223.92H308.51V182.38L308.52 182.39ZM325.75 216.93C327.51 215.82 328.85 214.12 329.78 211.83C330.71 209.54 331.18 206.65 331.18 203.17C331.18 197.99 330.15 194.12 328.09 191.57C326.03 189.02 323.15 187.74 319.43 187.74H314.44V218.6H319.43C321.88 218.6 323.99 218.05 325.75 216.94V216.93Z" fill="black"/>
<path d="M380.67 182.39H406.84V187.73H386.61V201.08H405.06V206.42H386.61V223.92H380.67V182.38V182.39Z" fill="black"/>
<path d="M420.31 221.94C418.02 220.22 416.27 217.76 415.09 214.55C413.9 211.35 413.31 207.55 413.31 203.16C413.31 198.77 413.9 194.97 415.09 191.77C416.27 188.57 418.02 186.1 420.31 184.38C422.6 182.66 425.37 181.8 428.61 181.8C431.85 181.8 434.62 182.66 436.92 184.38C439.21 186.1 440.95 188.56 442.14 191.77C443.33 194.98 443.92 198.77 443.92 203.16C443.92 207.55 443.33 211.35 442.14 214.55C440.95 217.75 439.21 220.22 436.92 221.94C434.63 223.66 431.86 224.52 428.61 224.52C425.36 224.52 422.6 223.66 420.31 221.94ZM433.83 217.28C435.22 216.01 436.25 214.17 436.95 211.76C437.64 209.35 437.99 206.48 437.99 203.16C437.99 198.1 437.2 194.16 435.62 191.35C434.04 188.54 431.74 187.14 428.74 187.14H428.5C426.48 187.14 424.78 187.77 423.4 189.04C422.02 190.31 420.98 192.15 420.29 194.56C419.6 196.97 419.25 199.84 419.25 203.16C419.25 208.22 420.04 212.16 421.62 214.97C423.2 217.78 425.49 219.18 428.5 219.18H428.74C430.76 219.18 432.45 218.55 433.84 217.28H433.83Z" fill="black"/>
<path d="M451.16 182.39H465.58C467.95 182.39 470.12 182.87 472.08 183.84C474.04 184.81 475.57 186.13 476.68 187.82C477.78 189.5 478.34 191.41 478.34 193.54C478.34 196.03 477.77 198.16 476.62 199.92C475.47 201.68 473.83 202.98 471.7 203.81H472C474.02 203.81 475.48 204.29 476.39 205.23C477.3 206.18 477.75 207.6 477.75 209.5V223.92H471.82V210.45C471.82 209.3 471.57 208.48 471.08 207.99C470.59 207.5 469.76 207.25 468.62 207.25H456.16V201.91H464.23C465.81 201.91 467.23 201.61 468.47 201.02C469.72 200.43 470.68 199.59 471.38 198.5C472.07 197.41 472.42 196.12 472.42 194.61C472.42 192.4 471.71 190.69 470.28 189.51C468.85 188.33 466.84 187.73 464.23 187.73H457.11V223.92H451.18V182.38L451.16 182.39Z" fill="black"/>
<path d="M521.95 182.39H527.88V218.59H550.13V223.93H521.95V182.39Z" fill="black"/>
<path d="M562.71 221.94C560.42 220.22 558.67 217.76 557.49 214.55C556.3 211.35 555.71 207.55 555.71 203.16C555.71 198.77 556.3 194.97 557.49 191.77C558.67 188.57 560.42 186.1 562.71 184.38C565 182.66 567.77 181.8 571.01 181.8C574.25 181.8 577.02 182.66 579.32 184.38C581.61 186.1 583.35 188.56 584.54 191.77C585.73 194.97 586.32 198.77 586.32 203.16C586.32 207.55 585.73 211.35 584.54 214.55C583.35 217.75 581.61 220.22 579.32 221.94C577.03 223.66 574.26 224.52 571.01 224.52C567.76 224.52 565 223.66 562.71 221.94ZM576.24 217.28C577.63 216.01 578.66 214.17 579.36 211.76C580.05 209.35 580.4 206.48 580.4 203.16C580.4 198.1 579.61 194.16 578.03 191.35C576.45 188.54 574.15 187.14 571.15 187.14H570.91C568.89 187.14 567.19 187.77 565.81 189.04C564.43 190.31 563.39 192.15 562.7 194.56C562.01 196.97 561.66 199.84 561.66 203.16C561.66 208.22 562.45 212.16 564.03 214.97C565.61 217.78 567.9 219.18 570.91 219.18H571.15C573.17 219.18 574.86 218.55 576.25 217.28H576.24Z" fill="black"/>
<path d="M592.68 182.39H599.68L616.23 216.98L614.69 217.57V182.38H620.56V223.92H613.79L597.24 189.33L598.55 188.85V223.92H592.68V182.38V182.39Z" fill="black"/>
<path d="M634.09 221.85C631.75 220.07 629.98 217.57 628.75 214.34C627.52 211.11 626.91 207.39 626.91 203.15C626.91 198.91 627.51 195.15 628.72 191.97C629.93 188.79 631.75 186.29 634.18 184.49C636.61 182.69 639.63 181.79 643.23 181.79C647.66 181.79 651.02 183.11 653.32 185.74C655.61 188.37 656.88 191.84 657.12 196.16H651.19C650.99 193.35 650.22 191.15 648.88 189.54C647.53 187.94 645.68 187.14 643.3 187.14H643.06C640.88 187.14 639.03 187.78 637.51 189.07C635.99 190.35 634.83 192.19 634.04 194.59C633.25 196.99 632.85 199.84 632.85 203.16C632.85 208.07 633.72 211.96 635.46 214.85C637.2 217.74 639.79 219.18 643.23 219.18H643.47C645.09 219.18 646.57 218.82 647.89 218.11C649.21 217.4 650.25 216.35 651 214.96C651.75 213.58 652.13 211.93 652.13 210.04V205.53L654.68 208.08H643.4V202.74H652.95C654.37 202.74 655.46 203.12 656.21 203.87C656.96 204.62 657.34 205.71 657.34 207.13V223.92H652.12V216.98L652.83 218.22C652.24 219.45 651.48 220.54 650.57 221.49C649.66 222.44 648.53 223.18 647.19 223.71C645.85 224.24 644.26 224.51 642.44 224.51C639.19 224.51 636.41 223.62 634.07 221.84L634.09 221.85Z" fill="black"/>
<path d="M664.83 182.39H691.12V187.73H670.77V199.89H688.04V205.23H670.77V218.58H691.72V223.92H664.84V182.38L664.83 182.39Z" fill="black"/>
<path d="M697.29 182.39H703.7L714.21 219.42H712.9L723.22 182.39H729.63L717.35 223.93H709.64L697.3 182.39H697.29Z" fill="black"/>
<path d="M737.52 182.39H760.54V187.31H737.52V182.39ZM737.52 219H760.54V223.92H737.52V219ZM746.06 182.39H751.99V223.93H746.06V182.39Z" fill="black"/>
<path d="M781.66 187.73H769.85V182.39H799.4V187.73H787.59V223.92H781.66V187.73Z" fill="black"/>
<path d="M817.21 207.43L804.33 182.39H810.86L820.95 203.34H819.59L829.74 182.39H836.15L823.16 207.43V223.93H817.23V207.43H817.21Z" fill="black"/>
</g>
<defs>
<clipPath id="clip0_3714_62">
<rect width="1080" height="225" fill="white"/>
</clipPath>
</defs>
</svg>
