<svg width="1080" height="426" viewBox="0 0 1080 426" fill="none" xmlns="http://www.w3.org/2000/svg">
<g clip-path="url(#clip0_3714_90)">
<path d="M816.25 201.91C860.16 201.37 883.88 239.6 873.71 280.34C866.13 310.68 839.27 326.53 808.67 322.82C737.9 314.24 740.63 202.84 816.26 201.91H816.25ZM812.02 216.9C760.02 221.5 762.39 303.18 811.42 308.38C834.56 310.84 853.34 298.02 858.25 275.2C865.24 242.72 847.58 213.76 812.02 216.9Z" fill="black"/>
<path d="M681.83 201.91C710.07 201.6 734.03 218.63 739.76 246.68C748.69 290.34 720.54 328.33 674.25 322.83C603.36 314.4 605.88 202.76 681.83 201.92V201.91ZM677.61 216.9C625.09 221.54 628.03 303.66 677.01 308.38C699.67 310.56 718.22 298.59 723.47 276.22C731.12 243.61 713.53 213.72 677.62 216.89L677.61 216.9Z" fill="black"/>
<path d="M174.46 204.6C199.11 206.77 213.39 229.34 203.48 252.27C199.64 261.16 196.19 261.92 188.88 266.66C188.43 266.95 188.04 266.61 188.28 267.7C207.56 271.82 203.29 296.97 205.68 311.81C206.2 315.06 207.56 317.79 207.95 321H192.26C188.58 313.24 189.27 303.92 188.27 295.53C187.37 287.91 186.61 277.24 178.08 274.38C174.44 273.16 165.17 272.83 159.04 272.83C138.75 272.83 130.67 272.35 130.67 259.29V321H115.21V204.59H174.46V204.6ZM130.67 259.3C142.15 258.8 154.17 259.96 165.58 259.32C179.63 258.53 191.48 253.35 190.09 237.16C189.17 226.43 179.91 219.1 169.31 219.1H130.67V259.3Z" fill="black"/>
<path d="M580.95 204.6C605.6 206.77 619.88 229.34 609.97 252.27C606.13 261.16 602.68 261.92 595.37 266.66C594.92 266.95 594.53 266.61 594.77 267.7C614.05 271.82 609.78 296.97 612.17 311.81C612.69 315.06 614.05 317.79 614.44 321H598.75C595.07 313.24 595.76 303.92 594.76 295.53C593.86 287.91 593.1 277.24 584.57 274.38C580.93 273.16 571.66 272.83 565.53 272.83C545.24 272.83 537.16 272.35 537.16 259.29V321H521.7V204.59H580.95V204.6ZM537.16 259.3C548.64 258.8 560.66 259.96 572.07 259.32C586.12 258.53 597.97 253.35 596.58 237.16C595.66 226.43 586.4 219.1 575.8 219.1H537.16V259.3Z" fill="black"/>
<path d="M1078.61 239.66H1061.75C1060.53 224.71 1049.63 217.1 1035.31 216.26C1019.78 215.35 1002.91 220.91 1004.59 239.44C1005.37 248 1013.62 251.07 1020.91 252.61C1041.46 256.93 1075.12 252.91 1079.49 280.62C1083.28 304.63 1065.5 320.03 1043.19 322.81C1015.19 326.3 984.47 314.49 984.94 282.2H1001.57L1002.2 282.97C1002.48 297.98 1013.35 307.35 1027.8 308.84C1042.48 310.35 1063.04 306.3 1063.65 288.06C1064.04 276.24 1055.53 272.27 1045.46 270.19C1025.85 266.13 993.67 269.58 988.83 243.5C979.64 193.95 1063.88 188.61 1076.61 227.88C1077.9 231.87 1078.04 235.56 1078.62 239.67L1078.61 239.66Z" fill="black"/>
<path d="M441.19 204.6V219.09H371.87V253.69H436.03V268.18H371.87V306.05H442.12V321.01H356.41V204.6H441.19Z" fill="black"/>
<path d="M246.35 204.6L246.33 272.64C244.92 319.01 314.42 320.74 315.68 274.98L315.66 204.6H331.12V276.36C330.11 339.25 232.41 338.23 230.87 276.38L230.89 204.6H246.35Z" fill="black"/>
<path d="M98.35 204.6V219.56H57.14V321.01H41.68V219.56H0V204.6H98.35Z" fill="black"/>
<path d="M976.51 204.6V219.56H934.83V321.01H919.37V219.56H878.16V204.6H976.51Z" fill="black"/>
<path d="M202.66 384.29H228.83V389.63H208.6V402.98H227.05V408.32H208.6V425.82H202.66V384.28V384.29Z" fill="black"/>
<path d="M242.3 423.84C240.01 422.12 238.26 419.66 237.08 416.45C235.89 413.25 235.3 409.45 235.3 405.06C235.3 400.67 235.89 396.87 237.08 393.67C238.26 390.47 240.01 388 242.3 386.28C244.59 384.56 247.36 383.7 250.6 383.7C253.84 383.7 256.61 384.56 258.91 386.28C261.2 388 262.94 390.46 264.13 393.67C265.32 396.88 265.91 400.67 265.91 405.06C265.91 409.45 265.32 413.25 264.13 416.45C262.94 419.65 261.2 422.12 258.91 423.84C256.62 425.56 253.85 426.42 250.6 426.42C247.35 426.42 244.59 425.56 242.3 423.84ZM255.82 419.19C257.21 417.92 258.24 416.08 258.94 413.67C259.63 411.26 259.98 408.39 259.98 405.07C259.98 400 259.19 396.07 257.61 393.26C256.03 390.45 253.73 389.05 250.73 389.05H250.49C248.47 389.05 246.77 389.69 245.39 390.95C244 392.22 242.97 394.06 242.28 396.47C241.59 398.88 241.24 401.75 241.24 405.07C241.24 410.13 242.03 414.07 243.61 416.88C245.19 419.69 247.48 421.09 250.49 421.09H250.73C252.75 421.09 254.44 420.46 255.83 419.19H255.82Z" fill="black"/>
<path d="M277.9 423.84C275.61 422.12 273.86 419.66 272.68 416.45C271.49 413.25 270.9 409.45 270.9 405.06C270.9 400.67 271.49 396.87 272.68 393.67C273.86 390.47 275.61 388 277.9 386.28C280.19 384.56 282.96 383.7 286.2 383.7C289.44 383.7 292.21 384.56 294.51 386.28C296.8 388 298.54 390.46 299.73 393.67C300.92 396.88 301.51 400.67 301.51 405.06C301.51 409.45 300.92 413.25 299.73 416.45C298.54 419.65 296.8 422.12 294.51 423.84C292.22 425.56 289.45 426.42 286.2 426.42C282.95 426.42 280.19 425.56 277.9 423.84ZM291.42 419.19C292.81 417.92 293.84 416.08 294.54 413.67C295.23 411.26 295.58 408.39 295.58 405.07C295.58 400 294.79 396.07 293.21 393.26C291.63 390.45 289.33 389.05 286.33 389.05H286.09C284.07 389.05 282.37 389.69 280.99 390.95C279.6 392.22 278.57 394.06 277.88 396.47C277.19 398.88 276.84 401.75 276.84 405.07C276.84 410.13 277.63 414.07 279.21 416.88C280.79 419.69 283.08 421.09 286.09 421.09H286.33C288.35 421.09 290.04 420.46 291.43 419.19H291.42Z" fill="black"/>
<path d="M308.51 384.29H319.72C323.12 384.29 326.14 385.1 328.77 386.72C331.4 388.34 333.45 390.72 334.91 393.87C336.37 397.02 337.1 400.76 337.1 405.12C337.1 409.48 336.38 413.21 334.93 416.33C333.49 419.45 331.47 421.82 328.88 423.42C326.29 425.02 323.29 425.82 319.89 425.82H308.5V384.28L308.51 384.29ZM325.75 418.83C327.51 417.72 328.85 416.02 329.78 413.73C330.71 411.44 331.18 408.55 331.18 405.07C331.18 399.89 330.15 396.02 328.09 393.47C326.03 390.92 323.15 389.64 319.43 389.64H314.44V420.5H319.43C321.88 420.5 323.99 419.94 325.75 418.84V418.83Z" fill="black"/>
<path d="M380.66 384.29H406.83V389.63H386.6V402.98H405.05V408.32H386.6V425.82H380.66V384.28V384.29Z" fill="black"/>
<path d="M420.311 423.84C418.021 422.12 416.271 419.66 415.091 416.45C413.901 413.25 413.311 409.45 413.311 405.06C413.311 400.67 413.901 396.87 415.091 393.67C416.271 390.47 418.021 388 420.311 386.28C422.601 384.56 425.371 383.7 428.611 383.7C431.851 383.7 434.621 384.56 436.921 386.28C439.211 388 440.951 390.46 442.141 393.67C443.331 396.88 443.921 400.67 443.921 405.06C443.921 409.45 443.331 413.25 442.141 416.45C440.951 419.65 439.211 422.12 436.921 423.84C434.631 425.56 431.861 426.42 428.611 426.42C425.361 426.42 422.601 425.56 420.311 423.84ZM433.831 419.19C435.221 417.92 436.251 416.08 436.951 413.67C437.641 411.26 437.991 408.39 437.991 405.07C437.991 400 437.201 396.07 435.621 393.26C434.041 390.45 431.741 389.05 428.741 389.05H428.501C426.481 389.05 424.781 389.69 423.401 390.95C422.011 392.22 420.981 394.06 420.291 396.47C419.601 398.88 419.251 401.75 419.251 405.07C419.251 410.13 420.041 414.07 421.621 416.88C423.201 419.69 425.491 421.09 428.501 421.09H428.741C430.761 421.09 432.451 420.46 433.841 419.19H433.831Z" fill="black"/>
<path d="M451.16 384.29H465.58C467.95 384.29 470.12 384.77 472.08 385.74C474.04 386.71 475.57 388.03 476.68 389.72C477.78 391.4 478.34 393.31 478.34 395.44C478.34 397.93 477.77 400.06 476.62 401.82C475.47 403.58 473.83 404.88 471.7 405.71H472C474.02 405.71 475.48 406.19 476.39 407.13C477.3 408.07 477.75 409.5 477.75 411.4V425.82H471.82V412.35C471.82 411.2 471.57 410.38 471.08 409.89C470.59 409.39 469.76 409.15 468.62 409.15H456.16V403.81H464.23C465.81 403.81 467.23 403.51 468.47 402.92C469.72 402.33 470.68 401.49 471.38 400.4C472.07 399.31 472.42 398.02 472.42 396.52C472.42 394.31 471.71 392.6 470.28 391.42C468.85 390.24 466.84 389.64 464.23 389.64H457.11V425.84H451.18V384.3L451.16 384.29Z" fill="black"/>
<path d="M521.95 384.29H527.88V420.49H550.13V425.83H521.95V384.29Z" fill="black"/>
<path d="M562.71 423.84C560.42 422.12 558.67 419.66 557.49 416.45C556.3 413.25 555.71 409.45 555.71 405.06C555.71 400.67 556.3 396.87 557.49 393.67C558.67 390.47 560.42 388 562.71 386.28C565 384.56 567.77 383.7 571.01 383.7C574.25 383.7 577.02 384.56 579.32 386.28C581.61 388 583.35 390.46 584.54 393.67C585.73 396.88 586.32 400.67 586.32 405.06C586.32 409.45 585.73 413.25 584.54 416.45C583.35 419.65 581.61 422.12 579.32 423.84C577.03 425.56 574.26 426.42 571.01 426.42C567.76 426.42 565 425.56 562.71 423.84ZM576.24 419.19C577.63 417.92 578.66 416.08 579.36 413.67C580.05 411.26 580.4 408.39 580.4 405.07C580.4 400 579.61 396.07 578.03 393.26C576.45 390.45 574.15 389.05 571.15 389.05H570.91C568.89 389.05 567.19 389.69 565.81 390.95C564.42 392.22 563.39 394.06 562.7 396.47C562.01 398.88 561.66 401.75 561.66 405.07C561.66 410.13 562.45 414.07 564.03 416.88C565.61 419.69 567.9 421.09 570.91 421.09H571.15C573.17 421.09 574.86 420.46 576.25 419.19H576.24Z" fill="black"/>
<path d="M592.68 384.29H599.68L616.23 418.88L614.69 419.47V384.28H620.56V425.82H613.79L597.24 391.23L598.55 390.75V425.82H592.68V384.28V384.29Z" fill="black"/>
<path d="M634.09 423.76C631.75 421.98 629.98 419.48 628.75 416.25C627.52 413.02 626.91 409.3 626.91 405.06C626.91 400.82 627.51 397.06 628.72 393.87C629.93 390.68 631.75 388.19 634.18 386.4C636.61 384.6 639.63 383.7 643.23 383.7C647.66 383.7 651.02 385.02 653.32 387.64C655.61 390.27 656.88 393.74 657.12 398.06H651.19C650.99 395.25 650.22 393.05 648.88 391.44C647.53 389.84 645.68 389.04 643.3 389.04H643.06C640.88 389.04 639.03 389.68 637.51 390.97C635.99 392.25 634.83 394.09 634.04 396.49C633.25 398.89 632.85 401.74 632.85 405.07C632.85 409.98 633.72 413.87 635.46 416.76C637.2 419.65 639.79 421.09 643.23 421.09H643.47C645.09 421.09 646.57 420.74 647.89 420.02C649.21 419.31 650.25 418.26 651 416.87C651.75 415.48 652.13 413.84 652.13 411.94V407.43L654.68 409.98H643.4V404.64H652.95C654.37 404.64 655.46 405.02 656.21 405.77C656.96 406.52 657.34 407.61 657.34 409.03V425.82H652.12V418.88L652.83 420.13C652.24 421.36 651.48 422.45 650.57 423.39C649.66 424.33 648.53 425.08 647.19 425.62C645.85 426.16 644.26 426.42 642.44 426.42C639.19 426.42 636.41 425.53 634.07 423.75L634.09 423.76Z" fill="black"/>
<path d="M664.83 384.29H691.12V389.63H670.77V401.8H688.04V407.14H670.77V420.49H691.72V425.83H664.84V384.29H664.83Z" fill="black"/>
<path d="M697.29 384.29H703.7L714.21 421.32H712.9L723.22 384.29H729.63L717.35 425.83H709.64L697.3 384.29H697.29Z" fill="black"/>
<path d="M737.521 384.29H760.54V389.21H737.521V384.29ZM737.521 420.9H760.54V425.83H737.521V420.9ZM746.06 384.29H751.99V425.83H746.06V384.29Z" fill="black"/>
<path d="M781.66 389.63H769.85V384.29H799.4V389.63H787.59V425.83H781.66V389.63Z" fill="black"/>
<path d="M817.2 409.33L804.32 384.29H810.85L820.94 405.24H819.58L829.73 384.29H836.14L823.15 409.33V425.83H817.22V409.33H817.2Z" fill="black"/>
<path d="M599.68 116.85C630.105 116.85 654.77 92.1853 654.77 61.7599C654.77 31.3346 630.105 6.66992 599.68 6.66992C569.254 6.66992 544.59 31.3346 544.59 61.7599C544.59 92.1853 569.254 116.85 599.68 116.85Z" fill="black"/>
<path d="M425.25 2.50977V121.01H543.75V2.50977H425.25ZM484.5 116.85C454.07 116.85 429.41 92.1898 429.41 61.7598C429.41 31.3298 454.07 6.66977 484.5 6.66977C514.93 6.66977 539.59 31.3398 539.59 61.7598C539.59 92.1798 514.93 116.85 484.5 116.85Z" fill="black"/>
<path d="M702.79 -0.290039C707.93 0.159961 710.9 4.85996 708.84 9.63996C708.04 11.49 707.32 11.65 705.8 12.64C705.71 12.7 705.63 12.63 705.67 12.86C709.69 13.72 708.8 18.96 709.3 22.05C709.41 22.73 709.69 23.3 709.77 23.96H706.5C705.73 22.34 705.88 20.4 705.67 18.65C705.48 17.06 705.32 14.84 703.55 14.24C702.79 13.99 700.86 13.92 699.58 13.92C695.35 13.92 693.67 13.82 693.67 11.1V23.96H690.45V-0.290039H702.79ZM693.66 11.11C696.05 11.01 698.56 11.25 700.93 11.11C703.86 10.95 706.33 9.86996 706.04 6.48996C705.85 4.24996 703.92 2.72996 701.71 2.72996H693.66V11.11Z" fill="black"/>
<path d="M686.86 -0.290039V2.82996H678.27V23.96H675.05V2.82996H666.37V-0.290039H686.86Z" fill="black"/>
</g>
<defs>
<clipPath id="clip0_3714_90">
<rect width="1080" height="426" fill="white"/>
</clipPath>
</defs>
</svg>
