<svg width="1080" height="439" viewBox="0 0 1080 439" fill="none" xmlns="http://www.w3.org/2000/svg">
<g clip-path="url(#clip0_3714_161)">
<path d="M43.1504 274.85H86.0004V283.83H53.6504V304.17H79.8504V313.16H53.6504V342.49H43.1504V274.85Z" fill="black"/>
<path d="M95.1602 308.62C95.1602 286.49 104.43 273.53 119.28 273.53C134.13 273.53 143.21 286.49 143.21 308.62C143.21 330.75 134.03 343.81 119.28 343.81C104.53 343.81 95.1602 330.75 95.1602 308.62ZM119.28 334.82C128.93 334.82 132.62 324.51 132.62 308.61C132.62 292.71 128.93 282.5 119.28 282.5C109.63 282.5 105.75 292.9 105.75 308.61C105.75 324.32 109.34 334.82 119.28 334.82Z" fill="black"/>
<path d="M151.9 308.62C151.9 286.49 161.17 273.53 176.02 273.53C190.87 273.53 199.95 286.49 199.95 308.62C199.95 330.75 190.77 343.81 176.02 343.81C161.27 343.81 151.9 330.75 151.9 308.62ZM176.02 334.82C185.67 334.82 189.36 324.51 189.36 308.61C189.36 292.71 185.67 282.5 176.02 282.5C166.37 282.5 162.49 292.9 162.49 308.61C162.49 324.32 166.08 334.82 176.02 334.82Z" fill="black"/>
<path d="M211.19 274.85H232.85C247.42 274.85 256.6 287.15 256.6 308.71C256.6 330.27 247.9 342.49 233.24 342.49H211.2V274.85H211.19ZM231.91 333.5C242.88 333.5 246 321.87 246 308.71C246 295.55 242.79 283.83 231.91 283.83H221.41V333.5H231.91Z" fill="black"/>
<path d="M322.12 274.85H364.97V283.83H332.62V304.17H358.82V313.16H332.62V342.49H322.12V274.85Z" fill="black"/>
<path d="M374.131 308.62C374.131 286.49 383.401 273.53 398.251 273.53C413.101 273.53 422.181 286.49 422.181 308.62C422.181 330.75 413.001 343.81 398.251 343.81C383.501 343.81 374.131 330.75 374.131 308.62ZM398.251 334.82C407.901 334.82 411.591 324.51 411.591 308.61C411.591 292.71 407.901 282.5 398.251 282.5C388.601 282.5 384.721 292.9 384.721 308.61C384.721 324.32 388.311 334.82 398.251 334.82Z" fill="black"/>
<path d="M434.561 274.85H458.781C471.081 274.85 477.981 281.85 477.981 294.34C477.981 302.95 473.721 309.19 467.381 310.89V311.08C480.531 314.02 475.701 340.69 478.731 341.83V342.49H467.851C465.301 339.65 470.601 316 457.451 316H444.961V342.49H434.551V274.85H434.561ZM456.701 307.01C463.701 307.01 467.671 302.94 467.671 294.99C467.671 287.7 464.361 283.83 456.791 283.83H444.971V307.01H456.701Z" fill="black"/>
<path d="M545.58 274.85H556.08V333.5H587.11V342.49H545.58V274.85Z" fill="black"/>
<path d="M596.36 308.62C596.36 286.49 605.63 273.53 620.48 273.53C635.33 273.53 644.41 286.49 644.41 308.62C644.41 330.75 635.23 343.81 620.48 343.81C605.73 343.81 596.36 330.75 596.36 308.62ZM620.49 334.82C630.14 334.82 633.83 324.51 633.83 308.61C633.83 292.71 630.14 282.5 620.49 282.5C610.84 282.5 606.96 292.9 606.96 308.61C606.96 324.32 610.55 334.82 620.49 334.82Z" fill="black"/>
<path d="M655.561 274.85H667.201L688.301 326.87H688.491V274.85H698.711V342.49H687.071L665.691 290.46H665.501L665.781 342.49H655.561V274.85Z" fill="black"/>
<path d="M710.51 309C710.51 288.47 718.93 273.52 734.45 273.52C746.65 273.52 754.31 282.7 755.73 295.75H745.13C744.18 287.14 740.21 282.51 734.34 282.51C724.31 282.51 721.1 295.94 721.1 308.62C721.1 321.3 724.03 334.83 733.97 334.83C741.44 334.83 745.8 327.54 745.89 315.82H734.44V307.11H756.48V342.49H749.29L747.68 333.12H747.49C744.56 340.41 739.64 343.82 732.73 343.82C718.26 343.82 710.5 328.97 710.5 309.01L710.51 309Z" fill="black"/>
<path d="M770.65 274.85H812.75V283.83H781.15V303.04H808.68V312.03H781.15V333.5H813.6V342.49H770.65V274.85Z" fill="black"/>
<path d="M821.72 274.85H833.07L847.64 331.52H847.73L862.11 274.85H872.99L853.22 342.49H841.97L821.72 274.85Z" fill="black"/>
<path d="M883.38 333.5H898.8V283.83H883.38V274.85H924.82V283.83H909.31V333.5H924.82V342.49H883.38V333.5Z" fill="black"/>
<path d="M955.631 283.83H936.331V274.85H985.331V283.83H966.031V342.49H955.621V283.83H955.631Z" fill="black"/>
<path d="M1012.37 315.33L990.8 274.84H1002.06L1017.48 307.19H1017.67L1033.28 274.84H1044.35L1022.78 315.33V342.48H1012.37V315.33Z" fill="black"/>
<path d="M34.7404 422.11H3.90039V412.65L34.7404 371.7H44.9604V413.32H54.2304V422.12H44.9604V437.07H34.7404V422.12V422.11ZM34.7404 413.31V384.84L13.2704 413.31H34.7404Z" fill="black"/>
<path d="M64.3301 391.65V383.33C80.0301 383.23 84.1001 380.49 84.9501 371.7H93.0901V428.27H108.7V437.07H64.3301V428.27H82.7701V388.54C79.2701 391.09 73.5901 391.66 64.3301 391.66V391.65Z" fill="black"/>
<path d="M136.96 425.42H148.69V437.06H136.96V425.42Z" fill="black"/>
<path d="M196.26 408.39C206 402.05 211.4 398.83 211.4 390.32C211.4 385.02 209.13 379.16 201.28 379.16C192.3 379.16 188.98 385.88 188.98 394.77H178.57C178.57 380.86 185.86 370.36 201.56 370.36C213.1 370.36 221.99 377.45 221.99 389.94C221.99 402.43 212.91 408.67 203.64 415.01C196.07 420.03 192.38 422.87 190.68 428.07V428.26H221.52V437.06H177.15C177.15 425.23 183.58 416.81 196.26 408.4V408.39Z" fill="black"/>
<path d="M261.7 422.11H230.86V412.65L261.7 371.7H271.92V413.32H281.19V422.12H271.92V437.07H261.7V422.12V422.11ZM261.7 413.31V384.84L240.23 413.31H261.7Z" fill="black"/>
<path d="M313.141 370.36C330.641 370.36 336.701 386.63 336.701 404.79C336.701 422.95 330.651 438.37 313.141 438.37C295.631 438.37 289.391 423.05 289.391 404.79C289.391 386.53 295.541 370.36 313.141 370.36ZM313.141 429.58C324.211 429.58 326.101 417.75 326.101 404.89C326.101 392.03 324.201 379.16 313.141 379.16C302.081 379.16 299.991 391.93 299.991 404.8C299.991 417.67 302.071 429.59 313.141 429.59V429.58ZM307.851 398.36H318.071V409.62H307.851V398.36Z" fill="black"/>
<path d="M392.491 404.13C392.491 425.6 383.691 438.37 368.741 438.37C357.481 438.37 349.821 430.33 348.591 420.5H358.991C359.561 425.7 362.301 429.86 368.831 429.86C379.431 429.86 382.361 418.61 382.361 407.16V406.12L382.171 406.03C379.051 411.7 373.561 414.82 366.941 414.82C355.111 414.82 346.881 405.84 346.881 393.07C346.881 380.3 355.301 370.37 368.731 370.37C386.331 370.37 392.481 384.27 392.481 404.14L392.491 404.13ZM368.651 406.22C376.501 406.22 381.521 400.64 381.521 392.31C381.521 383.98 377.071 378.88 369.131 378.88C361.191 378.88 357.311 384.18 357.311 392.5C357.311 400.82 361.661 406.22 368.661 406.22H368.651Z" fill="black"/>
<path d="M411.96 382.29C411.96 375.66 416.69 368.09 426.53 368.09C436.37 368.09 441.1 375.66 441.1 382.29C441.1 388.92 436.28 396.57 426.53 396.57C416.78 396.57 411.96 389 411.96 382.29ZM426.53 390.51C431.26 390.51 434.57 387.2 434.57 382.29C434.57 377.38 431.26 374.15 426.53 374.15C421.8 374.15 418.49 377.47 418.49 382.29C418.49 387.11 421.8 390.51 426.53 390.51Z" fill="black"/>
<path d="M461.7 369.41H473.34L494.44 421.44H494.63V369.41H504.85V437.05H493.21L471.83 385.02H471.64L471.92 437.05H461.7V369.41Z" fill="black"/>
<path d="M596.841 370.36C614.341 370.36 620.401 386.63 620.401 404.79C620.401 422.95 614.351 438.37 596.841 438.37C579.331 438.37 573.091 423.05 573.091 404.79C573.091 386.53 579.241 370.36 596.841 370.36ZM596.841 429.58C607.911 429.58 609.801 417.75 609.801 404.89C609.801 392.03 607.901 379.16 596.841 379.16C585.781 379.16 583.691 391.93 583.691 404.8C583.691 417.67 585.771 429.59 596.841 429.59V429.58ZM591.551 398.36H601.771V409.62H591.551V398.36Z" fill="black"/>
<path d="M650.18 408.39C659.92 402.05 665.32 398.83 665.32 390.32C665.32 385.02 663.05 379.16 655.2 379.16C646.22 379.16 642.9 385.88 642.9 394.77H632.49C632.49 380.86 639.78 370.36 655.48 370.36C667.02 370.36 675.91 377.45 675.91 389.94C675.91 402.43 666.83 408.67 657.56 415.01C649.99 420.03 646.3 422.87 644.6 428.07V428.26H675.44V437.06H631.07C631.07 425.23 637.5 416.81 650.18 408.4V408.39Z" fill="black"/>
<path d="M704.36 425.42H716.09V437.06H704.36V425.42Z" fill="black"/>
<path d="M745.221 391.65V383.33C760.921 383.23 764.991 380.49 765.841 371.7H773.981V428.27H789.591V437.07H745.221V428.27H763.661V388.54C760.161 391.09 754.481 391.66 745.221 391.66V391.65Z" fill="black"/>
<path d="M801.96 391.65V383.33C817.66 383.23 821.73 380.49 822.58 371.7H830.72V428.27H846.33V437.07H801.96V428.27H820.4V388.54C816.9 391.09 811.22 391.66 801.96 391.66V391.65Z" fill="black"/>
<path d="M858.031 417.95H868.43C869 423.9 872.41 429.58 880.63 429.58C888.01 429.58 892.841 424.38 892.841 414.73C892.841 405.08 888.391 401.39 881.021 401.39C876.291 401.39 871.94 403.29 869.19 407.26H858.88L865.5 371.7H900.5V380.49H873.16L869.94 398.56V398.75C873.06 395.25 877.6 393.08 883.85 393.08C895.49 393.08 903.43 402.26 903.43 414.74C903.43 429.22 893.781 438.39 881.201 438.39C866.351 438.39 858.501 428.93 858.021 417.96L858.031 417.95Z" fill="black"/>
<path d="M947.98 380.67V380.48H914.87V371.69H959.33V379.54C941.26 391.93 933.79 416.24 933.79 437.06H923.1C923.1 415.49 933.32 390.99 947.98 380.67Z" fill="black"/>
<path d="M979.36 382.29C979.36 375.66 984.09 368.09 993.93 368.09C1003.77 368.09 1008.5 375.66 1008.5 382.29C1008.5 388.92 1003.67 396.57 993.93 396.57C984.19 396.57 979.36 389 979.36 382.29ZM993.93 390.51C998.66 390.51 1001.97 387.2 1001.97 382.29C1001.97 377.38 998.66 374.15 993.93 374.15C989.2 374.15 985.89 377.47 985.89 382.29C985.89 387.11 989.2 390.51 993.93 390.51Z" fill="black"/>
<path d="M1025.04 369.41H1035.07L1039.61 421.82H1039.8L1046.42 385.96H1054.93L1061.55 421.82H1061.64L1066.27 369.41H1076.3L1067.41 437.05H1057.76L1050.66 395.61H1050.57L1043.57 437.05H1033.92L1025.03 369.41H1025.04Z" fill="black"/>
<path d="M1026.63 1.02979C1065.91 4.48979 1088.68 40.4498 1072.88 76.9998C1066.76 91.1698 1061.26 92.3798 1049.61 99.9398C1048.89 100.41 1048.27 99.8598 1048.65 101.6C1079.37 108.17 1072.58 148.24 1076.39 171.9C1077.22 177.08 1079.39 181.44 1080 186.55H1054.99C1049.13 174.19 1050.23 159.33 1048.64 145.95C1047.2 133.8 1045.99 116.8 1032.39 112.25C1026.59 110.31 1010.31 111.6 1000.55 111.6C968.21 111.6 956.83 109.02 956.83 88.1998V186.55H932.2V1.02979H1026.62H1026.63ZM956.84 88.1998C975.13 87.4098 994.29 89.2498 1012.48 88.2298C1034.87 86.9698 1053.75 78.7198 1051.54 52.8998C1050.08 35.7998 1035.32 24.1198 1018.42 24.1198H956.84V88.1998Z" fill="black"/>
<path d="M156.75 0V23.84H91.07V185.52H66.43V23.84H0V0H156.75Z" fill="black"/>
<path d="M654.39 201.56C703.306 201.56 742.96 161.906 742.96 112.99C742.96 64.0741 703.306 24.4199 654.39 24.4199C605.474 24.4199 565.82 64.0741 565.82 112.99C565.82 161.906 605.474 201.56 654.39 201.56Z" fill="black"/>
<path d="M373.94 17.73V208.26H564.47V17.73H373.94ZM469.2 201.56C420.28 201.56 380.63 161.91 380.63 112.99C380.63 64.07 420.29 24.42 469.2 24.42C518.11 24.42 557.77 64.08 557.77 112.99C557.77 161.9 518.11 201.56 469.2 201.56Z" fill="black"/>
</g>
<defs>
<clipPath id="clip0_3714_161">
<rect width="1080" height="438.38" fill="white"/>
</clipPath>
</defs>
</svg>
