<svg width="1002" height="71" viewBox="0 0 1002 71" fill="none" xmlns="http://www.w3.org/2000/svg">
<path d="M0 1.33008H42.85V10.3101H10.5V30.6501H36.7V39.6401H10.5V68.9701H0V1.33008Z" fill="black"/>
<path d="M52.01 35.0998C52.01 12.9698 61.28 0.00976562 76.13 0.00976562C90.98 0.00976562 100.06 12.9698 100.06 35.0998C100.06 57.2298 90.88 70.2898 76.13 70.2898C61.38 70.2898 52.01 57.2298 52.01 35.0998ZM76.13 61.2998C85.78 61.2998 89.47 50.9898 89.47 35.0898C89.47 19.1898 85.78 8.97977 76.13 8.97977C66.48 8.97977 62.6 19.3798 62.6 35.0898C62.6 50.7998 66.19 61.2998 76.13 61.2998Z" fill="black"/>
<path d="M108.75 35.0998C108.75 12.9698 118.02 0.00976562 132.87 0.00976562C147.72 0.00976562 156.8 12.9698 156.8 35.0998C156.8 57.2298 147.62 70.2898 132.87 70.2898C118.12 70.2898 108.75 57.2298 108.75 35.0998ZM132.87 61.2998C142.52 61.2998 146.21 50.9898 146.21 35.0898C146.21 19.1898 142.52 8.97977 132.87 8.97977C123.22 8.97977 119.34 19.3798 119.34 35.0898C119.34 50.7998 122.93 61.2998 132.87 61.2998Z" fill="black"/>
<path d="M168.04 1.33008H189.7C204.27 1.33008 213.45 13.6301 213.45 35.1901C213.45 56.7501 204.75 68.9701 190.09 68.9701H168.05V1.33008H168.04ZM188.76 59.9801C199.73 59.9801 202.85 48.3501 202.85 35.1901C202.85 22.0301 199.64 10.3101 188.76 10.3101H178.26V59.9801H188.76Z" fill="black"/>
<path d="M278.97 1.33008H321.82V10.3101H289.47V30.6501H315.67V39.6401H289.47V68.9701H278.97V1.33008Z" fill="black"/>
<path d="M330.98 35.0998C330.98 12.9698 340.25 0.00976562 355.1 0.00976562C369.95 0.00976562 379.03 12.9698 379.03 35.0998C379.03 57.2298 369.85 70.2898 355.1 70.2898C340.35 70.2898 330.98 57.2298 330.98 35.0998ZM355.1 61.2998C364.75 61.2998 368.44 50.9898 368.44 35.0898C368.44 19.1898 364.75 8.97977 355.1 8.97977C345.45 8.97977 341.57 19.3798 341.57 35.0898C341.57 50.7998 345.16 61.2998 355.1 61.2998Z" fill="black"/>
<path d="M391.41 1.33008H415.63C427.93 1.33008 434.83 8.33007 434.83 20.8201C434.83 29.4301 430.57 35.6701 424.23 37.3701V37.5601C437.38 40.5001 432.55 67.1701 435.58 68.3101V68.9701H424.7C422.15 66.1301 427.45 42.4801 414.3 42.4801H401.81V68.9701H391.4V1.33008H391.41ZM413.55 33.4901C420.55 33.4901 424.52 29.4201 424.52 21.4701C424.52 14.1801 421.21 10.3101 413.64 10.3101H401.82V33.4901H413.55Z" fill="black"/>
<path d="M502.43 1.33008H512.93V59.9801H543.96V68.9701H502.43V1.33008Z" fill="black"/>
<path d="M553.21 35.0998C553.21 12.9698 562.48 0.00976562 577.33 0.00976562C592.18 0.00976562 601.26 12.9698 601.26 35.0998C601.26 57.2298 592.08 70.2898 577.33 70.2898C562.58 70.2898 553.21 57.2298 553.21 35.0998ZM577.34 61.2998C586.99 61.2998 590.68 50.9898 590.68 35.0898C590.68 19.1898 586.99 8.97977 577.34 8.97977C567.69 8.97977 563.81 19.3798 563.81 35.0898C563.81 50.7998 567.4 61.2998 577.34 61.2998Z" fill="black"/>
<path d="M612.41 1.33008H624.05L645.15 53.3501H645.34V1.33008H655.56V68.9701H643.92L622.54 16.9401H622.35L622.63 68.9701H612.41V1.33008Z" fill="black"/>
<path d="M667.36 35.48C667.36 14.95 675.78 0 691.3 0C703.5 0 711.16 9.18001 712.58 22.23H701.98C701.03 13.62 697.06 8.99002 691.19 8.99002C681.16 8.99002 677.95 22.42 677.95 35.1C677.95 47.78 680.88 61.31 690.82 61.31C698.29 61.31 702.65 54.02 702.74 42.3H691.29V33.59H713.33V68.97H706.14L704.53 59.6H704.34C701.41 66.89 696.49 70.3 689.58 70.3C675.11 70.3 667.35 55.45 667.35 35.49L667.36 35.48Z" fill="black"/>
<path d="M727.5 1.33008H769.6V10.3101H738V29.5201H765.53V38.5101H738V59.9801H770.45V68.9701H727.5V1.33008Z" fill="black"/>
<path d="M778.57 1.33008H789.92L804.49 58.0001H804.58L818.96 1.33008H829.84L810.07 68.9701H798.82L778.57 1.33008Z" fill="black"/>
<path d="M840.23 59.9801H855.65V10.3101H840.23V1.33008H881.67V10.3101H866.16V59.9801H881.67V68.9701H840.23V59.9801Z" fill="black"/>
<path d="M912.48 10.3101H893.18V1.33008H942.18V10.3101H922.88V68.9701H912.47V10.3101H912.48Z" fill="black"/>
<path d="M969.22 41.8098L947.65 1.31982H958.91L974.33 33.6698H974.52L990.13 1.31982H1001.2L979.63 41.8098V68.9598H969.22V41.8098Z" fill="black"/>
</svg>
