<svg width="1073" height="165" viewBox="0 0 1073 165" fill="none" xmlns="http://www.w3.org/2000/svg">
<path d="M39.25 1.33008H82.1V10.3101H49.75V30.6501H75.95V39.6401H49.75V68.9701H39.25V1.33008Z" fill="black"/>
<path d="M91.26 35.0998C91.26 12.9698 100.53 0.00976562 115.38 0.00976562C130.23 0.00976562 139.31 12.9698 139.31 35.0998C139.31 57.2298 130.13 70.2898 115.38 70.2898C100.63 70.2898 91.26 57.2298 91.26 35.0998ZM115.38 61.2998C125.03 61.2998 128.72 50.9898 128.72 35.0898C128.72 19.1898 125.03 8.97977 115.38 8.97977C105.73 8.97977 101.85 19.3798 101.85 35.0898C101.85 50.7998 105.44 61.2998 115.38 61.2998Z" fill="black"/>
<path d="M148 35.0998C148 12.9698 157.27 0.00976562 172.12 0.00976562C186.97 0.00976562 196.05 12.9698 196.05 35.0998C196.05 57.2298 186.87 70.2898 172.12 70.2898C157.37 70.2898 148 57.2298 148 35.0998ZM172.12 61.2998C181.77 61.2998 185.46 50.9898 185.46 35.0898C185.46 19.1898 181.77 8.97977 172.12 8.97977C162.47 8.97977 158.59 19.3798 158.59 35.0898C158.59 50.7998 162.18 61.2998 172.12 61.2998Z" fill="black"/>
<path d="M207.29 1.33008H228.95C243.52 1.33008 252.7 13.6301 252.7 35.1901C252.7 56.7501 244 68.9701 229.34 68.9701H207.3V1.33008H207.29ZM228.01 59.9801C238.98 59.9801 242.1 48.3501 242.1 35.1901C242.1 22.0301 238.89 10.3101 228.01 10.3101H217.51V59.9801H228.01Z" fill="black"/>
<path d="M318.22 1.33008H361.07V10.3101H328.72V30.6501H354.92V39.6401H328.72V68.9701H318.22V1.33008Z" fill="black"/>
<path d="M370.23 35.0998C370.23 12.9698 379.5 0.00976562 394.35 0.00976562C409.2 0.00976562 418.28 12.9698 418.28 35.0998C418.28 57.2298 409.1 70.2898 394.35 70.2898C379.6 70.2898 370.23 57.2298 370.23 35.0998ZM394.35 61.2998C404 61.2998 407.69 50.9898 407.69 35.0898C407.69 19.1898 404 8.97977 394.35 8.97977C384.7 8.97977 380.82 19.3798 380.82 35.0898C380.82 50.7998 384.41 61.2998 394.35 61.2998Z" fill="black"/>
<path d="M430.66 1.33008H454.88C467.18 1.33008 474.08 8.33007 474.08 20.8201C474.08 29.4301 469.82 35.6701 463.48 37.3701V37.5601C476.63 40.5001 471.8 67.1701 474.83 68.3101V68.9701H463.95C461.4 66.1301 466.7 42.4801 453.55 42.4801H441.06V68.9701H430.65V1.33008H430.66ZM452.8 33.4901C459.8 33.4901 463.77 29.4201 463.77 21.4701C463.77 14.1801 460.46 10.3101 452.89 10.3101H441.07V33.4901H452.8Z" fill="black"/>
<path d="M541.68 1.33008H552.18V59.9801H583.21V68.9701H541.68V1.33008Z" fill="black"/>
<path d="M592.46 35.0998C592.46 12.9698 601.73 0.00976562 616.58 0.00976562C631.43 0.00976562 640.51 12.9698 640.51 35.0998C640.51 57.2298 631.33 70.2898 616.58 70.2898C601.83 70.2898 592.46 57.2298 592.46 35.0998ZM616.59 61.2998C626.24 61.2998 629.93 50.9898 629.93 35.0898C629.93 19.1898 626.24 8.97977 616.59 8.97977C606.94 8.97977 603.06 19.3798 603.06 35.0898C603.06 50.7998 606.65 61.2998 616.59 61.2998Z" fill="black"/>
<path d="M651.66 1.33008H663.3L684.4 53.3501H684.59V1.33008H694.81V68.9701H683.17L661.79 16.9401H661.6L661.88 68.9701H651.66V1.33008Z" fill="black"/>
<path d="M706.61 35.48C706.61 14.95 715.03 0 730.55 0C742.75 0 750.41 9.18001 751.83 22.23H741.23C740.28 13.62 736.31 8.99002 730.44 8.99002C720.41 8.99002 717.2 22.42 717.2 35.1C717.2 47.78 720.13 61.31 730.07 61.31C737.54 61.31 741.9 54.02 741.99 42.3H730.54V33.59H752.58V68.97H745.39L743.78 59.6H743.59C740.66 66.89 735.74 70.3 728.83 70.3C714.36 70.3 706.6 55.45 706.6 35.49L706.61 35.48Z" fill="black"/>
<path d="M766.75 1.33008H808.85V10.3101H777.25V29.5201H804.78V38.5101H777.25V59.9801H809.7V68.9701H766.75V1.33008Z" fill="black"/>
<path d="M817.82 1.33008H829.17L843.74 58.0001H843.83L858.21 1.33008H869.09L849.32 68.9701H838.07L817.82 1.33008Z" fill="black"/>
<path d="M879.48 59.9801H894.9V10.3101H879.48V1.33008H920.92V10.3101H905.41V59.9801H920.92V68.9701H879.48V59.9801Z" fill="black"/>
<path d="M951.73 10.3101H932.43V1.33008H981.43V10.3101H962.13V68.9701H951.72V10.3101H951.73Z" fill="black"/>
<path d="M1008.47 41.8098L986.9 1.31982H998.16L1013.58 33.6698H1013.77L1029.38 1.31982H1040.45L1018.88 41.8098V68.9598H1008.47V41.8098Z" fill="black"/>
<path d="M30.84 148.59H0V139.13L30.84 98.1802H41.06V139.8H50.33V148.6H41.06V163.55H30.84V148.6V148.59ZM30.84 139.79V111.32L9.37 139.79H30.84Z" fill="black"/>
<path d="M60.4301 118.13V109.81C76.1301 109.71 80.2 106.97 81.05 98.1802H89.19V154.75H104.8V163.55H60.4301V154.75H78.87V115.02C75.37 117.57 69.6901 118.14 60.4301 118.14V118.13Z" fill="black"/>
<path d="M133.06 151.9H144.79V163.54H133.06V151.9Z" fill="black"/>
<path d="M192.36 134.87C202.1 128.53 207.5 125.31 207.5 116.8C207.5 111.5 205.23 105.64 197.38 105.64C188.4 105.64 185.08 112.36 185.08 121.25H174.67C174.67 107.34 181.96 96.8398 197.66 96.8398C209.2 96.8398 218.09 103.93 218.09 116.42C218.09 128.91 209.01 135.15 199.74 141.49C192.17 146.51 188.48 149.35 186.78 154.55V154.74H217.62V163.54H173.25C173.25 151.71 179.68 143.29 192.36 134.88V134.87Z" fill="black"/>
<path d="M257.8 148.59H226.96V139.13L257.8 98.1802H268.02V139.8H277.29V148.6H268.02V163.55H257.8V148.6V148.59ZM257.8 139.79V111.32L236.33 139.79H257.8Z" fill="black"/>
<path d="M309.24 96.8398C326.74 96.8398 332.8 113.11 332.8 131.27C332.8 149.43 326.75 164.85 309.24 164.85C291.73 164.85 285.49 149.53 285.49 131.27C285.49 113.01 291.64 96.8398 309.24 96.8398ZM309.24 156.06C320.31 156.06 322.2 144.23 322.2 131.37C322.2 118.51 320.3 105.64 309.24 105.64C298.18 105.64 296.09 118.41 296.09 131.28C296.09 144.15 298.17 156.07 309.24 156.07V156.06ZM303.95 124.84H314.17V136.1H303.95V124.84Z" fill="black"/>
<path d="M388.59 130.61C388.59 152.08 379.79 164.85 364.84 164.85C353.58 164.85 345.92 156.81 344.69 146.98H355.09C355.66 152.18 358.4 156.34 364.93 156.34C375.53 156.34 378.46 145.09 378.46 133.64V132.6L378.27 132.51C375.15 138.18 369.66 141.3 363.04 141.3C351.21 141.3 342.98 132.32 342.98 119.55C342.98 106.78 351.4 96.8501 364.83 96.8501C382.43 96.8501 388.58 110.75 388.58 130.62L388.59 130.61ZM364.75 132.7C372.6 132.7 377.62 127.12 377.62 118.79C377.62 110.46 373.17 105.36 365.23 105.36C357.29 105.36 353.41 110.66 353.41 118.98C353.41 127.3 357.76 132.7 364.76 132.7H364.75Z" fill="black"/>
<path d="M408.06 108.77C408.06 102.14 412.79 94.5698 422.63 94.5698C432.47 94.5698 437.2 102.14 437.2 108.77C437.2 115.4 432.38 123.05 422.63 123.05C412.88 123.05 408.06 115.48 408.06 108.77ZM422.63 116.99C427.36 116.99 430.67 113.68 430.67 108.77C430.67 103.86 427.36 100.63 422.63 100.63C417.9 100.63 414.59 103.95 414.59 108.77C414.59 113.59 417.9 116.99 422.63 116.99Z" fill="black"/>
<path d="M457.8 95.8901H469.44L490.54 147.92H490.73V95.8901H500.95V163.53H489.31L467.93 111.5H467.74L468.02 163.53H457.8V95.8901Z" fill="black"/>
<path d="M592.94 96.8398C610.44 96.8398 616.5 113.11 616.5 131.27C616.5 149.43 610.45 164.85 592.94 164.85C575.43 164.85 569.19 149.53 569.19 131.27C569.19 113.01 575.34 96.8398 592.94 96.8398ZM592.94 156.06C604.01 156.06 605.9 144.23 605.9 131.37C605.9 118.51 604 105.64 592.94 105.64C581.88 105.64 579.79 118.41 579.79 131.28C579.79 144.15 581.87 156.07 592.94 156.07V156.06ZM587.65 124.84H597.87V136.1H587.65V124.84Z" fill="black"/>
<path d="M646.28 134.87C656.02 128.53 661.42 125.31 661.42 116.8C661.42 111.5 659.15 105.64 651.3 105.64C642.32 105.64 639 112.36 639 121.25H628.59C628.59 107.34 635.88 96.8398 651.58 96.8398C663.12 96.8398 672.01 103.93 672.01 116.42C672.01 128.91 662.93 135.15 653.66 141.49C646.09 146.51 642.4 149.35 640.7 154.55V154.74H671.54V163.54H627.17C627.17 151.71 633.6 143.29 646.28 134.88V134.87Z" fill="black"/>
<path d="M700.46 151.9H712.19V163.54H700.46V151.9Z" fill="black"/>
<path d="M741.32 118.13V109.81C757.02 109.71 761.09 106.97 761.94 98.1802H770.08V154.75H785.69V163.55H741.32V154.75H759.76V115.02C756.26 117.57 750.58 118.14 741.32 118.14V118.13Z" fill="black"/>
<path d="M798.06 118.13V109.81C813.76 109.71 817.83 106.97 818.68 98.1802H826.82V154.75H842.43V163.55H798.06V154.75H816.5V115.02C813 117.57 807.32 118.14 798.06 118.14V118.13Z" fill="black"/>
<path d="M854.13 144.43H864.53C865.1 150.38 868.51 156.06 876.73 156.06C884.11 156.06 888.94 150.86 888.94 141.21C888.94 131.56 884.49 127.87 877.12 127.87C872.39 127.87 868.04 129.77 865.29 133.74H854.98L861.6 98.1802H896.6V106.97H869.26L866.04 125.04V125.23C869.16 121.73 873.7 119.56 879.95 119.56C891.59 119.56 899.53 128.74 899.53 141.22C899.53 155.7 889.88 164.87 877.3 164.87C862.45 164.87 854.6 155.41 854.12 144.44L854.13 144.43Z" fill="black"/>
<path d="M944.08 107.15V106.96H910.97V98.1699H955.43V106.02C937.36 118.41 929.89 142.72 929.89 163.54H919.2C919.2 141.97 929.42 117.47 944.08 107.15Z" fill="black"/>
<path d="M975.46 108.77C975.46 102.14 980.19 94.5698 990.03 94.5698C999.87 94.5698 1004.6 102.14 1004.6 108.77C1004.6 115.4 999.77 123.05 990.03 123.05C980.29 123.05 975.46 115.48 975.46 108.77ZM990.03 116.99C994.76 116.99 998.07 113.68 998.07 108.77C998.07 103.86 994.76 100.63 990.03 100.63C985.3 100.63 981.99 103.95 981.99 108.77C981.99 113.59 985.3 116.99 990.03 116.99Z" fill="black"/>
<path d="M1021.14 95.8901H1031.17L1035.71 148.3H1035.9L1042.52 112.44H1051.03L1057.65 148.3H1057.74L1062.37 95.8901H1072.4L1063.51 163.53H1053.86L1046.76 122.09H1046.67L1039.67 163.53H1030.02L1021.13 95.8901H1021.14Z" fill="black"/>
</svg>
